G04 Layer: BottomSilkscreenLayer*
G04 EasyEDA v6.5.20, 2023-08-22 18:50:07*
G04 a67cddfb3fce44daa9051d46cbbcc19f,10*
G04 Gerber Generator version 0.2*
G04 Scale: 100 percent, Rotated: No, Reflected: No *
G04 Dimensions in millimeters *
G04 leading zeros omitted , absolute positions ,4 integer and 5 decimal *
%FSLAX45Y45*%
%MOMM*%

%ADD10C,0.2032*%

%LPD*%
D10*
X5399989Y455129D02*
G01*
X5399989Y261073D01*
X5399989Y455129D02*
G01*
X5335219Y455129D01*
X5307533Y445731D01*
X5289245Y427443D01*
X5279847Y408901D01*
X5270703Y381215D01*
X5270703Y334987D01*
X5279847Y307301D01*
X5289245Y288759D01*
X5307533Y270217D01*
X5335219Y261073D01*
X5399989Y261073D01*
X5163515Y390359D02*
G01*
X5182057Y381215D01*
X5200599Y362673D01*
X5209743Y334987D01*
X5209743Y316445D01*
X5200599Y288759D01*
X5182057Y270217D01*
X5163515Y261073D01*
X5135829Y261073D01*
X5117287Y270217D01*
X5098999Y288759D01*
X5089601Y316445D01*
X5089601Y334987D01*
X5098999Y362673D01*
X5117287Y381215D01*
X5135829Y390359D01*
X5163515Y390359D01*
X4886401Y390359D02*
G01*
X4886401Y261073D01*
X4886401Y353529D02*
G01*
X4858715Y381215D01*
X4840173Y390359D01*
X4812487Y390359D01*
X4794199Y381215D01*
X4784801Y353529D01*
X4784801Y261073D01*
X4677613Y390359D02*
G01*
X4696155Y381215D01*
X4714697Y362673D01*
X4723841Y334987D01*
X4723841Y316445D01*
X4714697Y288759D01*
X4696155Y270217D01*
X4677613Y261073D01*
X4649927Y261073D01*
X4631639Y270217D01*
X4613097Y288759D01*
X4603699Y316445D01*
X4603699Y334987D01*
X4613097Y362673D01*
X4631639Y381215D01*
X4649927Y390359D01*
X4677613Y390359D01*
X4515053Y455129D02*
G01*
X4515053Y297903D01*
X4505909Y270217D01*
X4487367Y261073D01*
X4469079Y261073D01*
X4542739Y390359D02*
G01*
X4478223Y390359D01*
X4265879Y390359D02*
G01*
X4265879Y261073D01*
X4265879Y334987D02*
G01*
X4256481Y362673D01*
X4237939Y381215D01*
X4219651Y390359D01*
X4191965Y390359D01*
X4131005Y334987D02*
G01*
X4020007Y334987D01*
X4020007Y353529D01*
X4029405Y371817D01*
X4038549Y381215D01*
X4057091Y390359D01*
X4084777Y390359D01*
X4103319Y381215D01*
X4121607Y362673D01*
X4131005Y334987D01*
X4131005Y316445D01*
X4121607Y288759D01*
X4103319Y270217D01*
X4084777Y261073D01*
X4057091Y261073D01*
X4038549Y270217D01*
X4020007Y288759D01*
X3959047Y390359D02*
G01*
X3959047Y261073D01*
X3959047Y353529D02*
G01*
X3931361Y381215D01*
X3912819Y390359D01*
X3885133Y390359D01*
X3866845Y381215D01*
X3857447Y353529D01*
X3857447Y261073D01*
X3857447Y353529D02*
G01*
X3829761Y381215D01*
X3811219Y390359D01*
X3783533Y390359D01*
X3765245Y381215D01*
X3755847Y353529D01*
X3755847Y261073D01*
X3648659Y390359D02*
G01*
X3667201Y381215D01*
X3685743Y362673D01*
X3694887Y334987D01*
X3694887Y316445D01*
X3685743Y288759D01*
X3667201Y270217D01*
X3648659Y261073D01*
X3620973Y261073D01*
X3602685Y270217D01*
X3584143Y288759D01*
X3574999Y316445D01*
X3574999Y334987D01*
X3584143Y362673D01*
X3602685Y381215D01*
X3620973Y390359D01*
X3648659Y390359D01*
X3514039Y390359D02*
G01*
X3458413Y261073D01*
X3403041Y390359D02*
G01*
X3458413Y261073D01*
X3342081Y334987D02*
G01*
X3231337Y334987D01*
X3231337Y353529D01*
X3240481Y371817D01*
X3249879Y381215D01*
X3268167Y390359D01*
X3295853Y390359D01*
X3314395Y381215D01*
X3332937Y362673D01*
X3342081Y334987D01*
X3342081Y316445D01*
X3332937Y288759D01*
X3314395Y270217D01*
X3295853Y261073D01*
X3268167Y261073D01*
X3249879Y270217D01*
X3231337Y288759D01*
X3000451Y455129D02*
G01*
X3000451Y297903D01*
X2991053Y270217D01*
X2972765Y261073D01*
X2954223Y261073D01*
X3028137Y390359D02*
G01*
X2963367Y390359D01*
X2893263Y455129D02*
G01*
X2893263Y261073D01*
X2893263Y353529D02*
G01*
X2865577Y381215D01*
X2847035Y390359D01*
X2819349Y390359D01*
X2800807Y381215D01*
X2791663Y353529D01*
X2791663Y261073D01*
X2730703Y455129D02*
G01*
X2721559Y445731D01*
X2712161Y455129D01*
X2721559Y464273D01*
X2730703Y455129D01*
X2721559Y390359D02*
G01*
X2721559Y261073D01*
X2549601Y362673D02*
G01*
X2558999Y381215D01*
X2586685Y390359D01*
X2614371Y390359D01*
X2642057Y381215D01*
X2651201Y362673D01*
X2642057Y344131D01*
X2623515Y334987D01*
X2577287Y325843D01*
X2558999Y316445D01*
X2549601Y297903D01*
X2549601Y288759D01*
X2558999Y270217D01*
X2586685Y261073D01*
X2614371Y261073D01*
X2642057Y270217D01*
X2651201Y288759D01*
X2346401Y455129D02*
G01*
X2346401Y261073D01*
X2174697Y390359D02*
G01*
X2174697Y261073D01*
X2174697Y362673D02*
G01*
X2193239Y381215D01*
X2211527Y390359D01*
X2239213Y390359D01*
X2257755Y381215D01*
X2276297Y362673D01*
X2285441Y334987D01*
X2285441Y316445D01*
X2276297Y288759D01*
X2257755Y270217D01*
X2239213Y261073D01*
X2211527Y261073D01*
X2193239Y270217D01*
X2174697Y288759D01*
X2113737Y455129D02*
G01*
X2113737Y261073D01*
X2113737Y362673D02*
G01*
X2095195Y381215D01*
X2076653Y390359D01*
X2048967Y390359D01*
X2030679Y381215D01*
X2012137Y362673D01*
X2002739Y334987D01*
X2002739Y316445D01*
X2012137Y288759D01*
X2030679Y270217D01*
X2048967Y261073D01*
X2076653Y261073D01*
X2095195Y270217D01*
X2113737Y288759D01*
X1941779Y334987D02*
G01*
X1831035Y334987D01*
X1831035Y353529D01*
X1840179Y371817D01*
X1849577Y381215D01*
X1868119Y390359D01*
X1895805Y390359D01*
X1914093Y381215D01*
X1932635Y362673D01*
X1941779Y334987D01*
X1941779Y316445D01*
X1932635Y288759D01*
X1914093Y270217D01*
X1895805Y261073D01*
X1868119Y261073D01*
X1849577Y270217D01*
X1831035Y288759D01*
X1770075Y455129D02*
G01*
X1770075Y261073D01*
M02*
