G04 Layer: TopSilkscreenLayer*
G04 EasyEDA v6.5.20, 2023-08-22 18:50:07*
G04 a67cddfb3fce44daa9051d46cbbcc19f,10*
G04 Gerber Generator version 0.2*
G04 Scale: 100 percent, Rotated: No, Reflected: No *
G04 Dimensions in millimeters *
G04 leading zeros omitted , absolute positions ,4 integer and 5 decimal *
%FSLAX45Y45*%
%MOMM*%

%ADD10C,0.2032*%

%LPD*%
D10*
X1749996Y455129D02*
G01*
X1749996Y261073D01*
X1749996Y455129D02*
G01*
X1814766Y455129D01*
X1842452Y445731D01*
X1860740Y427443D01*
X1870138Y408901D01*
X1879282Y381215D01*
X1879282Y334987D01*
X1870138Y307301D01*
X1860740Y288759D01*
X1842452Y270217D01*
X1814766Y261073D01*
X1749996Y261073D01*
X1986470Y390359D02*
G01*
X1967928Y381215D01*
X1949386Y362673D01*
X1940242Y334987D01*
X1940242Y316445D01*
X1949386Y288759D01*
X1967928Y270217D01*
X1986470Y261073D01*
X2014156Y261073D01*
X2032698Y270217D01*
X2050986Y288759D01*
X2060384Y316445D01*
X2060384Y334987D01*
X2050986Y362673D01*
X2032698Y381215D01*
X2014156Y390359D01*
X1986470Y390359D01*
X2263584Y390359D02*
G01*
X2263584Y261073D01*
X2263584Y353529D02*
G01*
X2291270Y381215D01*
X2309812Y390359D01*
X2337498Y390359D01*
X2355786Y381215D01*
X2365184Y353529D01*
X2365184Y261073D01*
X2472372Y390359D02*
G01*
X2453830Y381215D01*
X2435288Y362673D01*
X2426144Y334987D01*
X2426144Y316445D01*
X2435288Y288759D01*
X2453830Y270217D01*
X2472372Y261073D01*
X2500058Y261073D01*
X2518346Y270217D01*
X2536888Y288759D01*
X2546286Y316445D01*
X2546286Y334987D01*
X2536888Y362673D01*
X2518346Y381215D01*
X2500058Y390359D01*
X2472372Y390359D01*
X2634932Y455129D02*
G01*
X2634932Y297903D01*
X2644076Y270217D01*
X2662618Y261073D01*
X2680906Y261073D01*
X2607246Y390359D02*
G01*
X2671762Y390359D01*
X2884106Y390359D02*
G01*
X2884106Y261073D01*
X2884106Y334987D02*
G01*
X2893504Y362673D01*
X2912046Y381215D01*
X2930334Y390359D01*
X2958020Y390359D01*
X3018980Y334987D02*
G01*
X3129978Y334987D01*
X3129978Y353529D01*
X3120580Y371817D01*
X3111436Y381215D01*
X3092894Y390359D01*
X3065208Y390359D01*
X3046666Y381215D01*
X3028378Y362673D01*
X3018980Y334987D01*
X3018980Y316445D01*
X3028378Y288759D01*
X3046666Y270217D01*
X3065208Y261073D01*
X3092894Y261073D01*
X3111436Y270217D01*
X3129978Y288759D01*
X3190938Y390359D02*
G01*
X3190938Y261073D01*
X3190938Y353529D02*
G01*
X3218624Y381215D01*
X3237166Y390359D01*
X3264852Y390359D01*
X3283140Y381215D01*
X3292538Y353529D01*
X3292538Y261073D01*
X3292538Y353529D02*
G01*
X3320224Y381215D01*
X3338766Y390359D01*
X3366452Y390359D01*
X3384740Y381215D01*
X3394138Y353529D01*
X3394138Y261073D01*
X3501326Y390359D02*
G01*
X3482784Y381215D01*
X3464242Y362673D01*
X3455098Y334987D01*
X3455098Y316445D01*
X3464242Y288759D01*
X3482784Y270217D01*
X3501326Y261073D01*
X3529012Y261073D01*
X3547300Y270217D01*
X3565842Y288759D01*
X3574986Y316445D01*
X3574986Y334987D01*
X3565842Y362673D01*
X3547300Y381215D01*
X3529012Y390359D01*
X3501326Y390359D01*
X3635946Y390359D02*
G01*
X3691572Y261073D01*
X3746944Y390359D02*
G01*
X3691572Y261073D01*
X3807904Y334987D02*
G01*
X3918648Y334987D01*
X3918648Y353529D01*
X3909504Y371817D01*
X3900106Y381215D01*
X3881818Y390359D01*
X3854132Y390359D01*
X3835590Y381215D01*
X3817048Y362673D01*
X3807904Y334987D01*
X3807904Y316445D01*
X3817048Y288759D01*
X3835590Y270217D01*
X3854132Y261073D01*
X3881818Y261073D01*
X3900106Y270217D01*
X3918648Y288759D01*
X4149534Y455129D02*
G01*
X4149534Y297903D01*
X4158932Y270217D01*
X4177220Y261073D01*
X4195762Y261073D01*
X4121848Y390359D02*
G01*
X4186618Y390359D01*
X4256722Y455129D02*
G01*
X4256722Y261073D01*
X4256722Y353529D02*
G01*
X4284408Y381215D01*
X4302950Y390359D01*
X4330636Y390359D01*
X4349178Y381215D01*
X4358322Y353529D01*
X4358322Y261073D01*
X4419282Y455129D02*
G01*
X4428426Y445731D01*
X4437824Y455129D01*
X4428426Y464273D01*
X4419282Y455129D01*
X4428426Y390359D02*
G01*
X4428426Y261073D01*
X4600384Y362673D02*
G01*
X4590986Y381215D01*
X4563300Y390359D01*
X4535614Y390359D01*
X4507928Y381215D01*
X4498784Y362673D01*
X4507928Y344131D01*
X4526470Y334987D01*
X4572698Y325843D01*
X4590986Y316445D01*
X4600384Y297903D01*
X4600384Y288759D01*
X4590986Y270217D01*
X4563300Y261073D01*
X4535614Y261073D01*
X4507928Y270217D01*
X4498784Y288759D01*
X4803584Y455129D02*
G01*
X4803584Y261073D01*
X4975288Y390359D02*
G01*
X4975288Y261073D01*
X4975288Y362673D02*
G01*
X4956746Y381215D01*
X4938458Y390359D01*
X4910772Y390359D01*
X4892230Y381215D01*
X4873688Y362673D01*
X4864544Y334987D01*
X4864544Y316445D01*
X4873688Y288759D01*
X4892230Y270217D01*
X4910772Y261073D01*
X4938458Y261073D01*
X4956746Y270217D01*
X4975288Y288759D01*
X5036248Y455129D02*
G01*
X5036248Y261073D01*
X5036248Y362673D02*
G01*
X5054790Y381215D01*
X5073332Y390359D01*
X5101018Y390359D01*
X5119306Y381215D01*
X5137848Y362673D01*
X5147246Y334987D01*
X5147246Y316445D01*
X5137848Y288759D01*
X5119306Y270217D01*
X5101018Y261073D01*
X5073332Y261073D01*
X5054790Y270217D01*
X5036248Y288759D01*
X5208206Y334987D02*
G01*
X5318950Y334987D01*
X5318950Y353529D01*
X5309806Y371817D01*
X5300408Y381215D01*
X5281866Y390359D01*
X5254180Y390359D01*
X5235892Y381215D01*
X5217350Y362673D01*
X5208206Y334987D01*
X5208206Y316445D01*
X5217350Y288759D01*
X5235892Y270217D01*
X5254180Y261073D01*
X5281866Y261073D01*
X5300408Y270217D01*
X5318950Y288759D01*
X5379910Y455129D02*
G01*
X5379910Y261073D01*
G36*
X1499971Y2750007D02*
G01*
X1499971Y750011D01*
X5499963Y750011D01*
X5499963Y2750007D01*
G37*
M02*
