<?xml version="1.0" encoding="utf-8" standalone="no"?><svg xmlns="http://www.w3.org/2000/svg" xmlns:xlink="http://www.w3.org/1999/xlink" width="75.08255016510034mm" height="35.077470154940315mm" viewBox="4010 3299.9 295.6 138.1"><title>Photo View</title><rect x="4010" y="3299.9" width="295.6" height="138.1" fill="#000000" stroke="none"/><defs xmlns="http://www.w3.org/2000/svg" id="patterns"><pattern id="gridPattern" x="4000" y="3000" width="10" height="10" patternUnits="userSpaceOnUse"><rect id="gridCell" x="0" y="0" width="0.50001" height="0.50001" fill="#FFFFFF" stroke="none"/></pattern><pattern id="gridPattern2" x="4000.50001" y="3000.50001" width="10" height="10" patternUnits="userSpaceOnUse"><path id="gridCell2" d="M10 0V10H-10" fill="none" stroke="#FFFFFF" stroke-width="0.50001" stroke-opacity="0.6"/></pattern><marker id="arrowOnStart" orient="auto" refY="0" refX="0" style="overflow:visible" markerUnits="strokeWidth"><path d="M 2,0 l 4,-2, 0,4 z" stroke-width="6"/></marker><marker id="arrowOnEnd" orient="auto" refY="0" refX="0" style="overflow:visible" markerUnits="strokeWidth"><path d="M -2,0 l -4,-2, 0,4 z" stroke-width="6"/></marker><marker id="arrowOnStartChrome" orient="auto" refY="0" refX="0" style="overflow:visible" markerUnits="strokeWidth"><path d="M 2,0 l 4,-2, 0,4 z" stroke-width="3" stroke="#FFFFFF"/></marker><marker id="arrowOnEndChrome" orient="auto" refY="0" refX="0" style="overflow:visible" markerUnits="strokeWidth"><path d="M -2,0 l -4,-2, 0,4 z" stroke-width="3" stroke="#FFFFFF"/></marker><svg id="icon-lock" title="Unlock" viewBox="0 0 20 20" height="20" width="20"><path stroke="#F0F" stroke-width="2" style="cursor:pointer;fill-opacity:.001;fill:#fff" d="M 5 7 C 5 -1 15 -1 15 7L1 7 1 19 19 19 19 7 15 7"/></svg><mask id="multiLayerMask" maskUnits="userSpaceOnUse" x="4000.3" y="3290.2" width="315" height="157.5"><path d="M4031.8143 3428,4031.5013 3427.996,4031.1955 3427.984,4030.8902 3427.964,4030.5868 3427.9364,4030.277 3427.8999,4029.9747 3427.8564,4029.6711 3427.8046,4029.3675 3427.7444,4029.0708 3427.6778,4028.771 3427.6021,4028.4776 3427.5198,4028.1823 3427.4287,4027.8885 3427.3297,4027.604 3427.2254,4027.3164 3427.1113,4027.0329 3426.9904,4026.7558 3426.8634,4026.4774 3426.7271,4026.2059 3426.5852,4025.9349 3426.4345,4025.6748 3426.2809,4025.411 3426.1158,4025.1577 3425.9477,4024.9029 3425.7691,4024.6583 3425.5879,4024.415 3425.3976,4024.1778 3425.2019,4023.9474 3425.0016,4023.7182 3424.7917,4023.4986 3424.5797,4023.2808 3424.3583,4023.0742 3424.1369,4022.8686 3423.9049,4022.6713 3423.6701,4022.4818 3423.4324,4022.2943 3423.1841,4022.1156 3422.9342,4021.9429 3422.6789,4021.7781 3422.4212,4021.6189 3422.1574,4021.4686 3421.8928,4021.3225 3421.6193,4021.1844 3421.3441,4021.0542 3421.0664,4020.9308 3420.7846,4020.815 3420.5001,4020.7071 3420.2141,4020.6057 3419.9225,4020.5122 3419.6293,4020.4257 3419.3316,4020.3491 3419.0396,4020.2782 3418.7376,4020.2154 3418.4344,4020.1617 3418.1365,4020.1145 3417.8296,4020.0761 3417.5268,4020.0451 3417.2189,4020.0222 3416.9129,4020.0075 3416.6081,4020.0005 3416.2979,4020 3416.1879,4020 3321.7043,4020.004 3321.3913,4020.016 3321.0855,4020.036 3320.7802,4020.0636 3320.4768,4020.1001 3320.167,4020.1436 3319.8647,4020.1954 3319.5611,4020.2556 3319.2575,4020.3222 3318.9608,4020.3979 3318.661,4020.4802 3318.3676,4020.5713 3318.0723,4020.6703 3317.7785,4020.7746 3317.494,4020.8887 3317.2064,4021.0091 3316.924,4021.1366 3316.6458,4021.2729 3316.3674,4021.4148 3316.0959,4021.5655 3315.8249,4021.7191 3315.5648,4021.8842 3315.301,4022.0523 3315.0477,4022.2309 3314.7929,4022.4121 3314.5483,4022.6024 3314.305,4022.7981 3314.0678,4022.9984 3313.8374,4023.2083 3313.6082,4023.4208 3313.3881,4023.6417 3313.1708,4023.8631 3312.9642,4024.0951 3312.7586,4024.3299 3312.5613,4024.5676 3312.3718,4024.8159 3312.1843,4025.0658 3312.0056,4025.3211 3311.8329,4025.5788 3311.6681,4025.8426 3311.5089,4026.1072 3311.3586,4026.3807 3311.2125,4026.6559 3311.0744,4026.9336 3310.9442,4027.2154 3310.8208,4027.4999 3310.705,4027.7859 3310.5971,4028.0775 3310.4957,4028.3707 3310.4022,4028.6684 3310.3157,4028.9604 3310.2391,4029.2624 3310.1682,4029.5656 3310.1054,4029.8635 3310.0517,4030.1704 3310.0045,4030.4732 3309.9661,4030.7811 3309.9351,4031.0871 3309.9122,4031.3919 3309.8975,4031.7021 3309.8905,4031.8121 3309.89,4283.7757 3309.89,4284.0887 3309.894,4284.3945 3309.906,4284.6998 3309.926,4285.0032 3309.9536,4285.313 3309.9901,4285.6153 3310.0336,4285.9189 3310.0854,4286.2225 3310.1456,4286.5192 3310.2122,4286.819 3310.2879,4287.1124 3310.3702,4287.4077 3310.4613,4287.7015 3310.5603,4287.986 3310.6646,4288.2736 3310.7787,4288.556 3310.8991,4288.8342 3311.0266,4289.1126 3311.1629,4289.3841 3311.3048,4289.6551 3311.4555,4289.9152 3311.6091,4290.179 3311.7742,4290.4323 3311.9423,4290.6871 3312.1209,4290.9317 3312.3021,4291.175 3312.4924,4291.4122 3312.6881,4291.6426 3312.8884,4291.8718 3313.0983,4292.0914 3313.3103,4292.3092 3313.5317,4292.5158 3313.7531,4292.7214 3313.9851,4292.9187 3314.2199,4293.1082 3314.4576,4293.2957 3314.7059,4293.4744 3314.9557,4293.6465 3315.2103,4293.8119 3315.4688,4293.9711 3315.7326,4294.1214 3315.9972,4294.2675 3316.2707,4294.4056 3316.5459,4294.5358 3316.8236,4294.6592 3317.1054,4294.775 3317.3899,4294.8829 3317.6759,4294.9843 3317.9675,4295.0778 3318.2607,4295.1643 3318.5584,4295.2409 3318.8504,4295.3118 3319.1524,4295.3746 3319.4556,4295.4283 3319.7535,4295.4755 3320.0604,4295.5139 3320.3632,4295.5449 3320.6711,4295.5678 3320.9771,4295.5825 3321.2819,4295.5895 3321.5921,4295.59 3321.6998,4295.59 3416.1857,4295.586 3416.4987,4295.574 3416.8045,4295.554 3417.1098,4295.5264 3417.4132,4295.4899 3417.723,4295.4464 3418.0253,4295.3946 3418.3289,4295.3344 3418.6325,4295.2678 3418.9292,4295.1921 3419.229,4295.1098 3419.5224,4295.0187 3419.8177,4294.9197 3420.1115,4294.8154 3420.396,4294.7013 3420.6836,4294.5809 3420.966,4294.4534 3421.2442,4294.3171 3421.5226,4294.1752 3421.7941,4294.0245 3422.0651,4293.8709 3422.3252,4293.7058 3422.589,4293.5377 3422.8423,4293.3591 3423.0971,4293.1779 3423.3417,4292.9876 3423.585,4292.7919 3423.8222,4292.5916 3424.0526,4292.3817 3424.2818,4292.1697 3424.5014,4291.9483 3424.7192,4291.7269 3424.9258,4291.4949 3425.1314,4291.2601 3425.3287,4291.0224 3425.5182,4290.7741 3425.7057,4290.5242 3425.8844,4290.2689 3426.0571,4290.0112 3426.2219,4289.7474 3426.3811,4289.4828 3426.5314,4289.2093 3426.6775,4288.9341 3426.8156,4288.6564 3426.9458,4288.3746 3427.0692,4288.0901 3427.185,4287.8041 3427.2929,4287.5125 3427.3943,4287.2193 3427.4878,4286.9216 3427.5743,4286.6296 3427.6509,4286.3276 3427.7218,4286.0244 3427.7846,4285.7265 3427.8383,4285.4196 3427.8855,4285.1168 3427.9239,4284.8089 3427.9549,4284.5029 3427.9778,4284.1981 3427.9925,4283.8879 3427.9995,4283.7779 3428z" stroke="none" fill="white"/><g fill="black"><path d="M4031.811 3392.567A3.937 3.937 0 0 1 4031.811 3384.693L4047.559 3384.693A3.937 3.937 0 0 1 4047.559 3392.567z" stroke-width="0"/><path d="M4031.811 3353.197A3.937 3.937 0 0 1 4031.811 3345.3230000000003L4047.559 3345.3230000000003A3.937 3.937 0 0 1 4047.559 3353.197z" stroke-width="0"/><path d="M4258.1885 3353.197A3.937 3.937 0 0 1 4258.1885 3345.3230000000003L4273.9365 3345.3230000000003A3.937 3.937 0 0 1 4273.9365 3353.197z" stroke-width="0"/><path d="M4258.1885 3392.567A3.937 3.937 0 0 1 4258.1885 3384.693L4273.9365 3384.693A3.937 3.937 0 0 1 4273.9365 3392.567z" stroke-width="0"/></g></mask><mask id="topBoardSolderMask" maskUnits="userSpaceOnUse" x="4000.3" y="3290.2" width="315" height="157.5"><path d="M4031.8143 3428,4031.5013 3427.996,4031.1955 3427.984,4030.8902 3427.964,4030.5868 3427.9364,4030.277 3427.8999,4029.9747 3427.8564,4029.6711 3427.8046,4029.3675 3427.7444,4029.0708 3427.6778,4028.771 3427.6021,4028.4776 3427.5198,4028.1823 3427.4287,4027.8885 3427.3297,4027.604 3427.2254,4027.3164 3427.1113,4027.0329 3426.9904,4026.7558 3426.8634,4026.4774 3426.7271,4026.2059 3426.5852,4025.9349 3426.4345,4025.6748 3426.2809,4025.411 3426.1158,4025.1577 3425.9477,4024.9029 3425.7691,4024.6583 3425.5879,4024.415 3425.3976,4024.1778 3425.2019,4023.9474 3425.0016,4023.7182 3424.7917,4023.4986 3424.5797,4023.2808 3424.3583,4023.0742 3424.1369,4022.8686 3423.9049,4022.6713 3423.6701,4022.4818 3423.4324,4022.2943 3423.1841,4022.1156 3422.9342,4021.9429 3422.6789,4021.7781 3422.4212,4021.6189 3422.1574,4021.4686 3421.8928,4021.3225 3421.6193,4021.1844 3421.3441,4021.0542 3421.0664,4020.9308 3420.7846,4020.815 3420.5001,4020.7071 3420.2141,4020.6057 3419.9225,4020.5122 3419.6293,4020.4257 3419.3316,4020.3491 3419.0396,4020.2782 3418.7376,4020.2154 3418.4344,4020.1617 3418.1365,4020.1145 3417.8296,4020.0761 3417.5268,4020.0451 3417.2189,4020.0222 3416.9129,4020.0075 3416.6081,4020.0005 3416.2979,4020 3416.1879,4020 3321.7043,4020.004 3321.3913,4020.016 3321.0855,4020.036 3320.7802,4020.0636 3320.4768,4020.1001 3320.167,4020.1436 3319.8647,4020.1954 3319.5611,4020.2556 3319.2575,4020.3222 3318.9608,4020.3979 3318.661,4020.4802 3318.3676,4020.5713 3318.0723,4020.6703 3317.7785,4020.7746 3317.494,4020.8887 3317.2064,4021.0091 3316.924,4021.1366 3316.6458,4021.2729 3316.3674,4021.4148 3316.0959,4021.5655 3315.8249,4021.7191 3315.5648,4021.8842 3315.301,4022.0523 3315.0477,4022.2309 3314.7929,4022.4121 3314.5483,4022.6024 3314.305,4022.7981 3314.0678,4022.9984 3313.8374,4023.2083 3313.6082,4023.4208 3313.3881,4023.6417 3313.1708,4023.8631 3312.9642,4024.0951 3312.7586,4024.3299 3312.5613,4024.5676 3312.3718,4024.8159 3312.1843,4025.0658 3312.0056,4025.3211 3311.8329,4025.5788 3311.6681,4025.8426 3311.5089,4026.1072 3311.3586,4026.3807 3311.2125,4026.6559 3311.0744,4026.9336 3310.9442,4027.2154 3310.8208,4027.4999 3310.705,4027.7859 3310.5971,4028.0775 3310.4957,4028.3707 3310.4022,4028.6684 3310.3157,4028.9604 3310.2391,4029.2624 3310.1682,4029.5656 3310.1054,4029.8635 3310.0517,4030.1704 3310.0045,4030.4732 3309.9661,4030.7811 3309.9351,4031.0871 3309.9122,4031.3919 3309.8975,4031.7021 3309.8905,4031.8121 3309.89,4283.7757 3309.89,4284.0887 3309.894,4284.3945 3309.906,4284.6998 3309.926,4285.0032 3309.9536,4285.313 3309.9901,4285.6153 3310.0336,4285.9189 3310.0854,4286.2225 3310.1456,4286.5192 3310.2122,4286.819 3310.2879,4287.1124 3310.3702,4287.4077 3310.4613,4287.7015 3310.5603,4287.986 3310.6646,4288.2736 3310.7787,4288.556 3310.8991,4288.8342 3311.0266,4289.1126 3311.1629,4289.3841 3311.3048,4289.6551 3311.4555,4289.9152 3311.6091,4290.179 3311.7742,4290.4323 3311.9423,4290.6871 3312.1209,4290.9317 3312.3021,4291.175 3312.4924,4291.4122 3312.6881,4291.6426 3312.8884,4291.8718 3313.0983,4292.0914 3313.3103,4292.3092 3313.5317,4292.5158 3313.7531,4292.7214 3313.9851,4292.9187 3314.2199,4293.1082 3314.4576,4293.2957 3314.7059,4293.4744 3314.9557,4293.6465 3315.2103,4293.8119 3315.4688,4293.9711 3315.7326,4294.1214 3315.9972,4294.2675 3316.2707,4294.4056 3316.5459,4294.5358 3316.8236,4294.6592 3317.1054,4294.775 3317.3899,4294.8829 3317.6759,4294.9843 3317.9675,4295.0778 3318.2607,4295.1643 3318.5584,4295.2409 3318.8504,4295.3118 3319.1524,4295.3746 3319.4556,4295.4283 3319.7535,4295.4755 3320.0604,4295.5139 3320.3632,4295.5449 3320.6711,4295.5678 3320.9771,4295.5825 3321.2819,4295.5895 3321.5921,4295.59 3321.6998,4295.59 3416.1857,4295.586 3416.4987,4295.574 3416.8045,4295.554 3417.1098,4295.5264 3417.4132,4295.4899 3417.723,4295.4464 3418.0253,4295.3946 3418.3289,4295.3344 3418.6325,4295.2678 3418.9292,4295.1921 3419.229,4295.1098 3419.5224,4295.0187 3419.8177,4294.9197 3420.1115,4294.8154 3420.396,4294.7013 3420.6836,4294.5809 3420.966,4294.4534 3421.2442,4294.3171 3421.5226,4294.1752 3421.7941,4294.0245 3422.0651,4293.8709 3422.3252,4293.7058 3422.589,4293.5377 3422.8423,4293.3591 3423.0971,4293.1779 3423.3417,4292.9876 3423.585,4292.7919 3423.8222,4292.5916 3424.0526,4292.3817 3424.2818,4292.1697 3424.5014,4291.9483 3424.7192,4291.7269 3424.9258,4291.4949 3425.1314,4291.2601 3425.3287,4291.0224 3425.5182,4290.7741 3425.7057,4290.5242 3425.8844,4290.2689 3426.0571,4290.0112 3426.2219,4289.7474 3426.3811,4289.4828 3426.5314,4289.2093 3426.6775,4288.9341 3426.8156,4288.6564 3426.9458,4288.3746 3427.0692,4288.0901 3427.185,4287.8041 3427.2929,4287.5125 3427.3943,4287.2193 3427.4878,4286.9216 3427.5743,4286.6296 3427.6509,4286.3276 3427.7218,4286.0244 3427.7846,4285.7265 3427.8383,4285.4196 3427.8855,4285.1168 3427.9239,4284.8089 3427.9549,4284.5029 3427.9778,4284.1981 3427.9925,4283.8879 3427.9995,4283.7779 3428z" stroke="none" fill="white"/><g fill="black"><path d="M4030.8268 3393.95125A5.32125 5.32125 0 0 1 4030.8268 3383.30875L4048.5433 3383.30875A5.32125 5.32125 0 0 1 4048.5433 3393.95125z" stroke-width="0" c_etype="pad_outer"/><path d="M4030.8268 3354.58125A5.32125 5.32125 0 0 1 4030.8268 3343.9387500000003L4048.5433 3343.9387500000003A5.32125 5.32125 0 0 1 4048.5433 3354.58125z" stroke-width="0" c_etype="pad_outer"/><path d="M4257.2048 3354.58125A5.32125 5.32125 0 0 1 4257.2048 3343.9387500000003L4274.9213 3343.9387500000003A5.32125 5.32125 0 0 1 4274.9213 3354.58125z" stroke-width="0" c_etype="pad_outer"/><path d="M4257.2048 3393.95125A5.32125 5.32125 0 0 1 4257.2048 3383.30875L4274.9213 3383.30875A5.32125 5.32125 0 0 1 4274.9213 3393.95125z" stroke-width="0" c_etype="pad_outer"/></g></mask><mask id="topSignalSolderMask" maskUnits="userSpaceOnUse" x="4000.3" y="3290.2" width="315" height="157.5"><path d="M4031.8143 3428,4031.5013 3427.996,4031.1955 3427.984,4030.8902 3427.964,4030.5868 3427.9364,4030.277 3427.8999,4029.9747 3427.8564,4029.6711 3427.8046,4029.3675 3427.7444,4029.0708 3427.6778,4028.771 3427.6021,4028.4776 3427.5198,4028.1823 3427.4287,4027.8885 3427.3297,4027.604 3427.2254,4027.3164 3427.1113,4027.0329 3426.9904,4026.7558 3426.8634,4026.4774 3426.7271,4026.2059 3426.5852,4025.9349 3426.4345,4025.6748 3426.2809,4025.411 3426.1158,4025.1577 3425.9477,4024.9029 3425.7691,4024.6583 3425.5879,4024.415 3425.3976,4024.1778 3425.2019,4023.9474 3425.0016,4023.7182 3424.7917,4023.4986 3424.5797,4023.2808 3424.3583,4023.0742 3424.1369,4022.8686 3423.9049,4022.6713 3423.6701,4022.4818 3423.4324,4022.2943 3423.1841,4022.1156 3422.9342,4021.9429 3422.6789,4021.7781 3422.4212,4021.6189 3422.1574,4021.4686 3421.8928,4021.3225 3421.6193,4021.1844 3421.3441,4021.0542 3421.0664,4020.9308 3420.7846,4020.815 3420.5001,4020.7071 3420.2141,4020.6057 3419.9225,4020.5122 3419.6293,4020.4257 3419.3316,4020.3491 3419.0396,4020.2782 3418.7376,4020.2154 3418.4344,4020.1617 3418.1365,4020.1145 3417.8296,4020.0761 3417.5268,4020.0451 3417.2189,4020.0222 3416.9129,4020.0075 3416.6081,4020.0005 3416.2979,4020 3416.1879,4020 3321.7043,4020.004 3321.3913,4020.016 3321.0855,4020.036 3320.7802,4020.0636 3320.4768,4020.1001 3320.167,4020.1436 3319.8647,4020.1954 3319.5611,4020.2556 3319.2575,4020.3222 3318.9608,4020.3979 3318.661,4020.4802 3318.3676,4020.5713 3318.0723,4020.6703 3317.7785,4020.7746 3317.494,4020.8887 3317.2064,4021.0091 3316.924,4021.1366 3316.6458,4021.2729 3316.3674,4021.4148 3316.0959,4021.5655 3315.8249,4021.7191 3315.5648,4021.8842 3315.301,4022.0523 3315.0477,4022.2309 3314.7929,4022.4121 3314.5483,4022.6024 3314.305,4022.7981 3314.0678,4022.9984 3313.8374,4023.2083 3313.6082,4023.4208 3313.3881,4023.6417 3313.1708,4023.8631 3312.9642,4024.0951 3312.7586,4024.3299 3312.5613,4024.5676 3312.3718,4024.8159 3312.1843,4025.0658 3312.0056,4025.3211 3311.8329,4025.5788 3311.6681,4025.8426 3311.5089,4026.1072 3311.3586,4026.3807 3311.2125,4026.6559 3311.0744,4026.9336 3310.9442,4027.2154 3310.8208,4027.4999 3310.705,4027.7859 3310.5971,4028.0775 3310.4957,4028.3707 3310.4022,4028.6684 3310.3157,4028.9604 3310.2391,4029.2624 3310.1682,4029.5656 3310.1054,4029.8635 3310.0517,4030.1704 3310.0045,4030.4732 3309.9661,4030.7811 3309.9351,4031.0871 3309.9122,4031.3919 3309.8975,4031.7021 3309.8905,4031.8121 3309.89,4283.7757 3309.89,4284.0887 3309.894,4284.3945 3309.906,4284.6998 3309.926,4285.0032 3309.9536,4285.313 3309.9901,4285.6153 3310.0336,4285.9189 3310.0854,4286.2225 3310.1456,4286.5192 3310.2122,4286.819 3310.2879,4287.1124 3310.3702,4287.4077 3310.4613,4287.7015 3310.5603,4287.986 3310.6646,4288.2736 3310.7787,4288.556 3310.8991,4288.8342 3311.0266,4289.1126 3311.1629,4289.3841 3311.3048,4289.6551 3311.4555,4289.9152 3311.6091,4290.179 3311.7742,4290.4323 3311.9423,4290.6871 3312.1209,4290.9317 3312.3021,4291.175 3312.4924,4291.4122 3312.6881,4291.6426 3312.8884,4291.8718 3313.0983,4292.0914 3313.3103,4292.3092 3313.5317,4292.5158 3313.7531,4292.7214 3313.9851,4292.9187 3314.2199,4293.1082 3314.4576,4293.2957 3314.7059,4293.4744 3314.9557,4293.6465 3315.2103,4293.8119 3315.4688,4293.9711 3315.7326,4294.1214 3315.9972,4294.2675 3316.2707,4294.4056 3316.5459,4294.5358 3316.8236,4294.6592 3317.1054,4294.775 3317.3899,4294.8829 3317.6759,4294.9843 3317.9675,4295.0778 3318.2607,4295.1643 3318.5584,4295.2409 3318.8504,4295.3118 3319.1524,4295.3746 3319.4556,4295.4283 3319.7535,4295.4755 3320.0604,4295.5139 3320.3632,4295.5449 3320.6711,4295.5678 3320.9771,4295.5825 3321.2819,4295.5895 3321.5921,4295.59 3321.6998,4295.59 3416.1857,4295.586 3416.4987,4295.574 3416.8045,4295.554 3417.1098,4295.5264 3417.4132,4295.4899 3417.723,4295.4464 3418.0253,4295.3946 3418.3289,4295.3344 3418.6325,4295.2678 3418.9292,4295.1921 3419.229,4295.1098 3419.5224,4295.0187 3419.8177,4294.9197 3420.1115,4294.8154 3420.396,4294.7013 3420.6836,4294.5809 3420.966,4294.4534 3421.2442,4294.3171 3421.5226,4294.1752 3421.7941,4294.0245 3422.0651,4293.8709 3422.3252,4293.7058 3422.589,4293.5377 3422.8423,4293.3591 3423.0971,4293.1779 3423.3417,4292.9876 3423.585,4292.7919 3423.8222,4292.5916 3424.0526,4292.3817 3424.2818,4292.1697 3424.5014,4291.9483 3424.7192,4291.7269 3424.9258,4291.4949 3425.1314,4291.2601 3425.3287,4291.0224 3425.5182,4290.7741 3425.7057,4290.5242 3425.8844,4290.2689 3426.0571,4290.0112 3426.2219,4289.7474 3426.3811,4289.4828 3426.5314,4289.2093 3426.6775,4288.9341 3426.8156,4288.6564 3426.9458,4288.3746 3427.0692,4288.0901 3427.185,4287.8041 3427.2929,4287.5125 3427.3943,4287.2193 3427.4878,4286.9216 3427.5743,4286.6296 3427.6509,4286.3276 3427.7218,4286.0244 3427.7846,4285.7265 3427.8383,4285.4196 3427.8855,4285.1168 3427.9239,4284.8089 3427.9549,4284.5029 3427.9778,4284.1981 3427.9925,4283.8879 3427.9995,4283.7779 3428z" stroke="none" fill="white"/><g fill="black"><path d="M4030.8268 3393.95125A5.32125 5.32125 0 0 1 4030.8268 3383.30875L4048.5433 3383.30875A5.32125 5.32125 0 0 1 4048.5433 3393.95125z" stroke-width="0" c_etype="pad_outer"/><path d="M4030.8268 3354.58125A5.32125 5.32125 0 0 1 4030.8268 3343.9387500000003L4048.5433 3343.9387500000003A5.32125 5.32125 0 0 1 4048.5433 3354.58125z" stroke-width="0" c_etype="pad_outer"/><path d="M4257.2048 3354.58125A5.32125 5.32125 0 0 1 4257.2048 3343.9387500000003L4274.9213 3343.9387500000003A5.32125 5.32125 0 0 1 4274.9213 3354.58125z" stroke-width="0" c_etype="pad_outer"/><path d="M4257.2048 3393.95125A5.32125 5.32125 0 0 1 4257.2048 3383.30875L4274.9213 3383.30875A5.32125 5.32125 0 0 1 4274.9213 3393.95125z" stroke-width="0" c_etype="pad_outer"/></g></mask><mask id="bottomBoardSolderMask" maskUnits="userSpaceOnUse" x="4000.3" y="3290.2" width="315" height="157.5"><path d="M4031.8143 3428,4031.5013 3427.996,4031.1955 3427.984,4030.8902 3427.964,4030.5868 3427.9364,4030.277 3427.8999,4029.9747 3427.8564,4029.6711 3427.8046,4029.3675 3427.7444,4029.0708 3427.6778,4028.771 3427.6021,4028.4776 3427.5198,4028.1823 3427.4287,4027.8885 3427.3297,4027.604 3427.2254,4027.3164 3427.1113,4027.0329 3426.9904,4026.7558 3426.8634,4026.4774 3426.7271,4026.2059 3426.5852,4025.9349 3426.4345,4025.6748 3426.2809,4025.411 3426.1158,4025.1577 3425.9477,4024.9029 3425.7691,4024.6583 3425.5879,4024.415 3425.3976,4024.1778 3425.2019,4023.9474 3425.0016,4023.7182 3424.7917,4023.4986 3424.5797,4023.2808 3424.3583,4023.0742 3424.1369,4022.8686 3423.9049,4022.6713 3423.6701,4022.4818 3423.4324,4022.2943 3423.1841,4022.1156 3422.9342,4021.9429 3422.6789,4021.7781 3422.4212,4021.6189 3422.1574,4021.4686 3421.8928,4021.3225 3421.6193,4021.1844 3421.3441,4021.0542 3421.0664,4020.9308 3420.7846,4020.815 3420.5001,4020.7071 3420.2141,4020.6057 3419.9225,4020.5122 3419.6293,4020.4257 3419.3316,4020.3491 3419.0396,4020.2782 3418.7376,4020.2154 3418.4344,4020.1617 3418.1365,4020.1145 3417.8296,4020.0761 3417.5268,4020.0451 3417.2189,4020.0222 3416.9129,4020.0075 3416.6081,4020.0005 3416.2979,4020 3416.1879,4020 3321.7043,4020.004 3321.3913,4020.016 3321.0855,4020.036 3320.7802,4020.0636 3320.4768,4020.1001 3320.167,4020.1436 3319.8647,4020.1954 3319.5611,4020.2556 3319.2575,4020.3222 3318.9608,4020.3979 3318.661,4020.4802 3318.3676,4020.5713 3318.0723,4020.6703 3317.7785,4020.7746 3317.494,4020.8887 3317.2064,4021.0091 3316.924,4021.1366 3316.6458,4021.2729 3316.3674,4021.4148 3316.0959,4021.5655 3315.8249,4021.7191 3315.5648,4021.8842 3315.301,4022.0523 3315.0477,4022.2309 3314.7929,4022.4121 3314.5483,4022.6024 3314.305,4022.7981 3314.0678,4022.9984 3313.8374,4023.2083 3313.6082,4023.4208 3313.3881,4023.6417 3313.1708,4023.8631 3312.9642,4024.0951 3312.7586,4024.3299 3312.5613,4024.5676 3312.3718,4024.8159 3312.1843,4025.0658 3312.0056,4025.3211 3311.8329,4025.5788 3311.6681,4025.8426 3311.5089,4026.1072 3311.3586,4026.3807 3311.2125,4026.6559 3311.0744,4026.9336 3310.9442,4027.2154 3310.8208,4027.4999 3310.705,4027.7859 3310.5971,4028.0775 3310.4957,4028.3707 3310.4022,4028.6684 3310.3157,4028.9604 3310.2391,4029.2624 3310.1682,4029.5656 3310.1054,4029.8635 3310.0517,4030.1704 3310.0045,4030.4732 3309.9661,4030.7811 3309.9351,4031.0871 3309.9122,4031.3919 3309.8975,4031.7021 3309.8905,4031.8121 3309.89,4283.7757 3309.89,4284.0887 3309.894,4284.3945 3309.906,4284.6998 3309.926,4285.0032 3309.9536,4285.313 3309.9901,4285.6153 3310.0336,4285.9189 3310.0854,4286.2225 3310.1456,4286.5192 3310.2122,4286.819 3310.2879,4287.1124 3310.3702,4287.4077 3310.4613,4287.7015 3310.5603,4287.986 3310.6646,4288.2736 3310.7787,4288.556 3310.8991,4288.8342 3311.0266,4289.1126 3311.1629,4289.3841 3311.3048,4289.6551 3311.4555,4289.9152 3311.6091,4290.179 3311.7742,4290.4323 3311.9423,4290.6871 3312.1209,4290.9317 3312.3021,4291.175 3312.4924,4291.4122 3312.6881,4291.6426 3312.8884,4291.8718 3313.0983,4292.0914 3313.3103,4292.3092 3313.5317,4292.5158 3313.7531,4292.7214 3313.9851,4292.9187 3314.2199,4293.1082 3314.4576,4293.2957 3314.7059,4293.4744 3314.9557,4293.6465 3315.2103,4293.8119 3315.4688,4293.9711 3315.7326,4294.1214 3315.9972,4294.2675 3316.2707,4294.4056 3316.5459,4294.5358 3316.8236,4294.6592 3317.1054,4294.775 3317.3899,4294.8829 3317.6759,4294.9843 3317.9675,4295.0778 3318.2607,4295.1643 3318.5584,4295.2409 3318.8504,4295.3118 3319.1524,4295.3746 3319.4556,4295.4283 3319.7535,4295.4755 3320.0604,4295.5139 3320.3632,4295.5449 3320.6711,4295.5678 3320.9771,4295.5825 3321.2819,4295.5895 3321.5921,4295.59 3321.6998,4295.59 3416.1857,4295.586 3416.4987,4295.574 3416.8045,4295.554 3417.1098,4295.5264 3417.4132,4295.4899 3417.723,4295.4464 3418.0253,4295.3946 3418.3289,4295.3344 3418.6325,4295.2678 3418.9292,4295.1921 3419.229,4295.1098 3419.5224,4295.0187 3419.8177,4294.9197 3420.1115,4294.8154 3420.396,4294.7013 3420.6836,4294.5809 3420.966,4294.4534 3421.2442,4294.3171 3421.5226,4294.1752 3421.7941,4294.0245 3422.0651,4293.8709 3422.3252,4293.7058 3422.589,4293.5377 3422.8423,4293.3591 3423.0971,4293.1779 3423.3417,4292.9876 3423.585,4292.7919 3423.8222,4292.5916 3424.0526,4292.3817 3424.2818,4292.1697 3424.5014,4291.9483 3424.7192,4291.7269 3424.9258,4291.4949 3425.1314,4291.2601 3425.3287,4291.0224 3425.5182,4290.7741 3425.7057,4290.5242 3425.8844,4290.2689 3426.0571,4290.0112 3426.2219,4289.7474 3426.3811,4289.4828 3426.5314,4289.2093 3426.6775,4288.9341 3426.8156,4288.6564 3426.9458,4288.3746 3427.0692,4288.0901 3427.185,4287.8041 3427.2929,4287.5125 3427.3943,4287.2193 3427.4878,4286.9216 3427.5743,4286.6296 3427.6509,4286.3276 3427.7218,4286.0244 3427.7846,4285.7265 3427.8383,4285.4196 3427.8855,4285.1168 3427.9239,4284.8089 3427.9549,4284.5029 3427.9778,4284.1981 3427.9925,4283.8879 3427.9995,4283.7779 3428z" stroke="none" fill="white"/><g fill="black"><path d="M4030.8268 3393.95125A5.32125 5.32125 0 0 1 4030.8268 3383.30875L4048.5433 3383.30875A5.32125 5.32125 0 0 1 4048.5433 3393.95125z" stroke-width="0" c_etype="pad_outer"/><path d="M4030.8268 3354.58125A5.32125 5.32125 0 0 1 4030.8268 3343.9387500000003L4048.5433 3343.9387500000003A5.32125 5.32125 0 0 1 4048.5433 3354.58125z" stroke-width="0" c_etype="pad_outer"/><path d="M4257.2048 3354.58125A5.32125 5.32125 0 0 1 4257.2048 3343.9387500000003L4274.9213 3343.9387500000003A5.32125 5.32125 0 0 1 4274.9213 3354.58125z" stroke-width="0" c_etype="pad_outer"/><path d="M4257.2048 3393.95125A5.32125 5.32125 0 0 1 4257.2048 3383.30875L4274.9213 3383.30875A5.32125 5.32125 0 0 1 4274.9213 3393.95125z" stroke-width="0" c_etype="pad_outer"/></g></mask><mask id="bottomSignalSolderMask" maskUnits="userSpaceOnUse" x="4000.3" y="3290.2" width="315" height="157.5"><path d="M4031.8143 3428,4031.5013 3427.996,4031.1955 3427.984,4030.8902 3427.964,4030.5868 3427.9364,4030.277 3427.8999,4029.9747 3427.8564,4029.6711 3427.8046,4029.3675 3427.7444,4029.0708 3427.6778,4028.771 3427.6021,4028.4776 3427.5198,4028.1823 3427.4287,4027.8885 3427.3297,4027.604 3427.2254,4027.3164 3427.1113,4027.0329 3426.9904,4026.7558 3426.8634,4026.4774 3426.7271,4026.2059 3426.5852,4025.9349 3426.4345,4025.6748 3426.2809,4025.411 3426.1158,4025.1577 3425.9477,4024.9029 3425.7691,4024.6583 3425.5879,4024.415 3425.3976,4024.1778 3425.2019,4023.9474 3425.0016,4023.7182 3424.7917,4023.4986 3424.5797,4023.2808 3424.3583,4023.0742 3424.1369,4022.8686 3423.9049,4022.6713 3423.6701,4022.4818 3423.4324,4022.2943 3423.1841,4022.1156 3422.9342,4021.9429 3422.6789,4021.7781 3422.4212,4021.6189 3422.1574,4021.4686 3421.8928,4021.3225 3421.6193,4021.1844 3421.3441,4021.0542 3421.0664,4020.9308 3420.7846,4020.815 3420.5001,4020.7071 3420.2141,4020.6057 3419.9225,4020.5122 3419.6293,4020.4257 3419.3316,4020.3491 3419.0396,4020.2782 3418.7376,4020.2154 3418.4344,4020.1617 3418.1365,4020.1145 3417.8296,4020.0761 3417.5268,4020.0451 3417.2189,4020.0222 3416.9129,4020.0075 3416.6081,4020.0005 3416.2979,4020 3416.1879,4020 3321.7043,4020.004 3321.3913,4020.016 3321.0855,4020.036 3320.7802,4020.0636 3320.4768,4020.1001 3320.167,4020.1436 3319.8647,4020.1954 3319.5611,4020.2556 3319.2575,4020.3222 3318.9608,4020.3979 3318.661,4020.4802 3318.3676,4020.5713 3318.0723,4020.6703 3317.7785,4020.7746 3317.494,4020.8887 3317.2064,4021.0091 3316.924,4021.1366 3316.6458,4021.2729 3316.3674,4021.4148 3316.0959,4021.5655 3315.8249,4021.7191 3315.5648,4021.8842 3315.301,4022.0523 3315.0477,4022.2309 3314.7929,4022.4121 3314.5483,4022.6024 3314.305,4022.7981 3314.0678,4022.9984 3313.8374,4023.2083 3313.6082,4023.4208 3313.3881,4023.6417 3313.1708,4023.8631 3312.9642,4024.0951 3312.7586,4024.3299 3312.5613,4024.5676 3312.3718,4024.8159 3312.1843,4025.0658 3312.0056,4025.3211 3311.8329,4025.5788 3311.6681,4025.8426 3311.5089,4026.1072 3311.3586,4026.3807 3311.2125,4026.6559 3311.0744,4026.9336 3310.9442,4027.2154 3310.8208,4027.4999 3310.705,4027.7859 3310.5971,4028.0775 3310.4957,4028.3707 3310.4022,4028.6684 3310.3157,4028.9604 3310.2391,4029.2624 3310.1682,4029.5656 3310.1054,4029.8635 3310.0517,4030.1704 3310.0045,4030.4732 3309.9661,4030.7811 3309.9351,4031.0871 3309.9122,4031.3919 3309.8975,4031.7021 3309.8905,4031.8121 3309.89,4283.7757 3309.89,4284.0887 3309.894,4284.3945 3309.906,4284.6998 3309.926,4285.0032 3309.9536,4285.313 3309.9901,4285.6153 3310.0336,4285.9189 3310.0854,4286.2225 3310.1456,4286.5192 3310.2122,4286.819 3310.2879,4287.1124 3310.3702,4287.4077 3310.4613,4287.7015 3310.5603,4287.986 3310.6646,4288.2736 3310.7787,4288.556 3310.8991,4288.8342 3311.0266,4289.1126 3311.1629,4289.3841 3311.3048,4289.6551 3311.4555,4289.9152 3311.6091,4290.179 3311.7742,4290.4323 3311.9423,4290.6871 3312.1209,4290.9317 3312.3021,4291.175 3312.4924,4291.4122 3312.6881,4291.6426 3312.8884,4291.8718 3313.0983,4292.0914 3313.3103,4292.3092 3313.5317,4292.5158 3313.7531,4292.7214 3313.9851,4292.9187 3314.2199,4293.1082 3314.4576,4293.2957 3314.7059,4293.4744 3314.9557,4293.6465 3315.2103,4293.8119 3315.4688,4293.9711 3315.7326,4294.1214 3315.9972,4294.2675 3316.2707,4294.4056 3316.5459,4294.5358 3316.8236,4294.6592 3317.1054,4294.775 3317.3899,4294.8829 3317.6759,4294.9843 3317.9675,4295.0778 3318.2607,4295.1643 3318.5584,4295.2409 3318.8504,4295.3118 3319.1524,4295.3746 3319.4556,4295.4283 3319.7535,4295.4755 3320.0604,4295.5139 3320.3632,4295.5449 3320.6711,4295.5678 3320.9771,4295.5825 3321.2819,4295.5895 3321.5921,4295.59 3321.6998,4295.59 3416.1857,4295.586 3416.4987,4295.574 3416.8045,4295.554 3417.1098,4295.5264 3417.4132,4295.4899 3417.723,4295.4464 3418.0253,4295.3946 3418.3289,4295.3344 3418.6325,4295.2678 3418.9292,4295.1921 3419.229,4295.1098 3419.5224,4295.0187 3419.8177,4294.9197 3420.1115,4294.8154 3420.396,4294.7013 3420.6836,4294.5809 3420.966,4294.4534 3421.2442,4294.3171 3421.5226,4294.1752 3421.7941,4294.0245 3422.0651,4293.8709 3422.3252,4293.7058 3422.589,4293.5377 3422.8423,4293.3591 3423.0971,4293.1779 3423.3417,4292.9876 3423.585,4292.7919 3423.8222,4292.5916 3424.0526,4292.3817 3424.2818,4292.1697 3424.5014,4291.9483 3424.7192,4291.7269 3424.9258,4291.4949 3425.1314,4291.2601 3425.3287,4291.0224 3425.5182,4290.7741 3425.7057,4290.5242 3425.8844,4290.2689 3426.0571,4290.0112 3426.2219,4289.7474 3426.3811,4289.4828 3426.5314,4289.2093 3426.6775,4288.9341 3426.8156,4288.6564 3426.9458,4288.3746 3427.0692,4288.0901 3427.185,4287.8041 3427.2929,4287.5125 3427.3943,4287.2193 3427.4878,4286.9216 3427.5743,4286.6296 3427.6509,4286.3276 3427.7218,4286.0244 3427.7846,4285.7265 3427.8383,4285.4196 3427.8855,4285.1168 3427.9239,4284.8089 3427.9549,4284.5029 3427.9778,4284.1981 3427.9925,4283.8879 3427.9995,4283.7779 3428z" stroke="none" fill="white"/><g fill="black"><path d="M4030.8268 3393.95125A5.32125 5.32125 0 0 1 4030.8268 3383.30875L4048.5433 3383.30875A5.32125 5.32125 0 0 1 4048.5433 3393.95125z" stroke-width="0" c_etype="pad_outer"/><path d="M4030.8268 3354.58125A5.32125 5.32125 0 0 1 4030.8268 3343.9387500000003L4048.5433 3343.9387500000003A5.32125 5.32125 0 0 1 4048.5433 3354.58125z" stroke-width="0" c_etype="pad_outer"/><path d="M4257.2048 3354.58125A5.32125 5.32125 0 0 1 4257.2048 3343.9387500000003L4274.9213 3343.9387500000003A5.32125 5.32125 0 0 1 4274.9213 3354.58125z" stroke-width="0" c_etype="pad_outer"/><path d="M4257.2048 3393.95125A5.32125 5.32125 0 0 1 4257.2048 3383.30875L4274.9213 3383.30875A5.32125 5.32125 0 0 1 4274.9213 3393.95125z" stroke-width="0" c_etype="pad_outer"/></g></mask></defs><g xmlns="http://www.w3.org/2000/svg" id="g1" mask="url(#multiLayerMask)" class="photoview" transform="matrix(-1, 0, 0, 1, 8315.58984375, 0)"><g id="layer_other" class="shapeBox"><path d="M4031.8143 3428,4031.5013 3427.996,4031.1955 3427.984,4030.8902 3427.964,4030.5868 3427.9364,4030.277 3427.8999,4029.9747 3427.8564,4029.6711 3427.8046,4029.3675 3427.7444,4029.0708 3427.6778,4028.771 3427.6021,4028.4776 3427.5198,4028.1823 3427.4287,4027.8885 3427.3297,4027.604 3427.2254,4027.3164 3427.1113,4027.0329 3426.9904,4026.7558 3426.8634,4026.4774 3426.7271,4026.2059 3426.5852,4025.9349 3426.4345,4025.6748 3426.2809,4025.411 3426.1158,4025.1577 3425.9477,4024.9029 3425.7691,4024.6583 3425.5879,4024.415 3425.3976,4024.1778 3425.2019,4023.9474 3425.0016,4023.7182 3424.7917,4023.4986 3424.5797,4023.2808 3424.3583,4023.0742 3424.1369,4022.8686 3423.9049,4022.6713 3423.6701,4022.4818 3423.4324,4022.2943 3423.1841,4022.1156 3422.9342,4021.9429 3422.6789,4021.7781 3422.4212,4021.6189 3422.1574,4021.4686 3421.8928,4021.3225 3421.6193,4021.1844 3421.3441,4021.0542 3421.0664,4020.9308 3420.7846,4020.815 3420.5001,4020.7071 3420.2141,4020.6057 3419.9225,4020.5122 3419.6293,4020.4257 3419.3316,4020.3491 3419.0396,4020.2782 3418.7376,4020.2154 3418.4344,4020.1617 3418.1365,4020.1145 3417.8296,4020.0761 3417.5268,4020.0451 3417.2189,4020.0222 3416.9129,4020.0075 3416.6081,4020.0005 3416.2979,4020 3416.1879,4020 3321.7043,4020.004 3321.3913,4020.016 3321.0855,4020.036 3320.7802,4020.0636 3320.4768,4020.1001 3320.167,4020.1436 3319.8647,4020.1954 3319.5611,4020.2556 3319.2575,4020.3222 3318.9608,4020.3979 3318.661,4020.4802 3318.3676,4020.5713 3318.0723,4020.6703 3317.7785,4020.7746 3317.494,4020.8887 3317.2064,4021.0091 3316.924,4021.1366 3316.6458,4021.2729 3316.3674,4021.4148 3316.0959,4021.5655 3315.8249,4021.7191 3315.5648,4021.8842 3315.301,4022.0523 3315.0477,4022.2309 3314.7929,4022.4121 3314.5483,4022.6024 3314.305,4022.7981 3314.0678,4022.9984 3313.8374,4023.2083 3313.6082,4023.4208 3313.3881,4023.6417 3313.1708,4023.8631 3312.9642,4024.0951 3312.7586,4024.3299 3312.5613,4024.5676 3312.3718,4024.8159 3312.1843,4025.0658 3312.0056,4025.3211 3311.8329,4025.5788 3311.6681,4025.8426 3311.5089,4026.1072 3311.3586,4026.3807 3311.2125,4026.6559 3311.0744,4026.9336 3310.9442,4027.2154 3310.8208,4027.4999 3310.705,4027.7859 3310.5971,4028.0775 3310.4957,4028.3707 3310.4022,4028.6684 3310.3157,4028.9604 3310.2391,4029.2624 3310.1682,4029.5656 3310.1054,4029.8635 3310.0517,4030.1704 3310.0045,4030.4732 3309.9661,4030.7811 3309.9351,4031.0871 3309.9122,4031.3919 3309.8975,4031.7021 3309.8905,4031.8121 3309.89,4283.7757 3309.89,4284.0887 3309.894,4284.3945 3309.906,4284.6998 3309.926,4285.0032 3309.9536,4285.313 3309.9901,4285.6153 3310.0336,4285.9189 3310.0854,4286.2225 3310.1456,4286.5192 3310.2122,4286.819 3310.2879,4287.1124 3310.3702,4287.4077 3310.4613,4287.7015 3310.5603,4287.986 3310.6646,4288.2736 3310.7787,4288.556 3310.8991,4288.8342 3311.0266,4289.1126 3311.1629,4289.3841 3311.3048,4289.6551 3311.4555,4289.9152 3311.6091,4290.179 3311.7742,4290.4323 3311.9423,4290.6871 3312.1209,4290.9317 3312.3021,4291.175 3312.4924,4291.4122 3312.6881,4291.6426 3312.8884,4291.8718 3313.0983,4292.0914 3313.3103,4292.3092 3313.5317,4292.5158 3313.7531,4292.7214 3313.9851,4292.9187 3314.2199,4293.1082 3314.4576,4293.2957 3314.7059,4293.4744 3314.9557,4293.6465 3315.2103,4293.8119 3315.4688,4293.9711 3315.7326,4294.1214 3315.9972,4294.2675 3316.2707,4294.4056 3316.5459,4294.5358 3316.8236,4294.6592 3317.1054,4294.775 3317.3899,4294.8829 3317.6759,4294.9843 3317.9675,4295.0778 3318.2607,4295.1643 3318.5584,4295.2409 3318.8504,4295.3118 3319.1524,4295.3746 3319.4556,4295.4283 3319.7535,4295.4755 3320.0604,4295.5139 3320.3632,4295.5449 3320.6711,4295.5678 3320.9771,4295.5825 3321.2819,4295.5895 3321.5921,4295.59 3321.6998,4295.59 3416.1857,4295.586 3416.4987,4295.574 3416.8045,4295.554 3417.1098,4295.5264 3417.4132,4295.4899 3417.723,4295.4464 3418.0253,4295.3946 3418.3289,4295.3344 3418.6325,4295.2678 3418.9292,4295.1921 3419.229,4295.1098 3419.5224,4295.0187 3419.8177,4294.9197 3420.1115,4294.8154 3420.396,4294.7013 3420.6836,4294.5809 3420.966,4294.4534 3421.2442,4294.3171 3421.5226,4294.1752 3421.7941,4294.0245 3422.0651,4293.8709 3422.3252,4293.7058 3422.589,4293.5377 3422.8423,4293.3591 3423.0971,4293.1779 3423.3417,4292.9876 3423.585,4292.7919 3423.8222,4292.5916 3424.0526,4292.3817 3424.2818,4292.1697 3424.5014,4291.9483 3424.7192,4291.7269 3424.9258,4291.4949 3425.1314,4291.2601 3425.3287,4291.0224 3425.5182,4290.7741 3425.7057,4290.5242 3425.8844,4290.2689 3426.0571,4290.0112 3426.2219,4289.7474 3426.3811,4289.4828 3426.5314,4289.2093 3426.6775,4288.9341 3426.8156,4288.6564 3426.9458,4288.3746 3427.0692,4288.0901 3427.185,4287.8041 3427.2929,4287.5125 3427.3943,4287.2193 3427.4878,4286.9216 3427.5743,4286.6296 3427.6509,4286.3276 3427.7218,4286.0244 3427.7846,4285.7265 3427.8383,4285.4196 3427.8855,4285.1168 3427.9239,4284.8089 3427.9549,4284.5029 3427.9778,4284.1981 3427.9925,4283.8879 3427.9995,4283.7779 3428z" stroke="none" id="boardOutlineReal" fill="#80785F"/><path d="M4031.8143 3428,4031.5013 3427.996,4031.1955 3427.984,4030.8902 3427.964,4030.5868 3427.9364,4030.277 3427.8999,4029.9747 3427.8564,4029.6711 3427.8046,4029.3675 3427.7444,4029.0708 3427.6778,4028.771 3427.6021,4028.4776 3427.5198,4028.1823 3427.4287,4027.8885 3427.3297,4027.604 3427.2254,4027.3164 3427.1113,4027.0329 3426.9904,4026.7558 3426.8634,4026.4774 3426.7271,4026.2059 3426.5852,4025.9349 3426.4345,4025.6748 3426.2809,4025.411 3426.1158,4025.1577 3425.9477,4024.9029 3425.7691,4024.6583 3425.5879,4024.415 3425.3976,4024.1778 3425.2019,4023.9474 3425.0016,4023.7182 3424.7917,4023.4986 3424.5797,4023.2808 3424.3583,4023.0742 3424.1369,4022.8686 3423.9049,4022.6713 3423.6701,4022.4818 3423.4324,4022.2943 3423.1841,4022.1156 3422.9342,4021.9429 3422.6789,4021.7781 3422.4212,4021.6189 3422.1574,4021.4686 3421.8928,4021.3225 3421.6193,4021.1844 3421.3441,4021.0542 3421.0664,4020.9308 3420.7846,4020.815 3420.5001,4020.7071 3420.2141,4020.6057 3419.9225,4020.5122 3419.6293,4020.4257 3419.3316,4020.3491 3419.0396,4020.2782 3418.7376,4020.2154 3418.4344,4020.1617 3418.1365,4020.1145 3417.8296,4020.0761 3417.5268,4020.0451 3417.2189,4020.0222 3416.9129,4020.0075 3416.6081,4020.0005 3416.2979,4020 3416.1879,4020 3321.7043,4020.004 3321.3913,4020.016 3321.0855,4020.036 3320.7802,4020.0636 3320.4768,4020.1001 3320.167,4020.1436 3319.8647,4020.1954 3319.5611,4020.2556 3319.2575,4020.3222 3318.9608,4020.3979 3318.661,4020.4802 3318.3676,4020.5713 3318.0723,4020.6703 3317.7785,4020.7746 3317.494,4020.8887 3317.2064,4021.0091 3316.924,4021.1366 3316.6458,4021.2729 3316.3674,4021.4148 3316.0959,4021.5655 3315.8249,4021.7191 3315.5648,4021.8842 3315.301,4022.0523 3315.0477,4022.2309 3314.7929,4022.4121 3314.5483,4022.6024 3314.305,4022.7981 3314.0678,4022.9984 3313.8374,4023.2083 3313.6082,4023.4208 3313.3881,4023.6417 3313.1708,4023.8631 3312.9642,4024.0951 3312.7586,4024.3299 3312.5613,4024.5676 3312.3718,4024.8159 3312.1843,4025.0658 3312.0056,4025.3211 3311.8329,4025.5788 3311.6681,4025.8426 3311.5089,4026.1072 3311.3586,4026.3807 3311.2125,4026.6559 3311.0744,4026.9336 3310.9442,4027.2154 3310.8208,4027.4999 3310.705,4027.7859 3310.5971,4028.0775 3310.4957,4028.3707 3310.4022,4028.6684 3310.3157,4028.9604 3310.2391,4029.2624 3310.1682,4029.5656 3310.1054,4029.8635 3310.0517,4030.1704 3310.0045,4030.4732 3309.9661,4030.7811 3309.9351,4031.0871 3309.9122,4031.3919 3309.8975,4031.7021 3309.8905,4031.8121 3309.89,4283.7757 3309.89,4284.0887 3309.894,4284.3945 3309.906,4284.6998 3309.926,4285.0032 3309.9536,4285.313 3309.9901,4285.6153 3310.0336,4285.9189 3310.0854,4286.2225 3310.1456,4286.5192 3310.2122,4286.819 3310.2879,4287.1124 3310.3702,4287.4077 3310.4613,4287.7015 3310.5603,4287.986 3310.6646,4288.2736 3310.7787,4288.556 3310.8991,4288.8342 3311.0266,4289.1126 3311.1629,4289.3841 3311.3048,4289.6551 3311.4555,4289.9152 3311.6091,4290.179 3311.7742,4290.4323 3311.9423,4290.6871 3312.1209,4290.9317 3312.3021,4291.175 3312.4924,4291.4122 3312.6881,4291.6426 3312.8884,4291.8718 3313.0983,4292.0914 3313.3103,4292.3092 3313.5317,4292.5158 3313.7531,4292.7214 3313.9851,4292.9187 3314.2199,4293.1082 3314.4576,4293.2957 3314.7059,4293.4744 3314.9557,4293.6465 3315.2103,4293.8119 3315.4688,4293.9711 3315.7326,4294.1214 3315.9972,4294.2675 3316.2707,4294.4056 3316.5459,4294.5358 3316.8236,4294.6592 3317.1054,4294.775 3317.3899,4294.8829 3317.6759,4294.9843 3317.9675,4295.0778 3318.2607,4295.1643 3318.5584,4295.2409 3318.8504,4295.3118 3319.1524,4295.3746 3319.4556,4295.4283 3319.7535,4295.4755 3320.0604,4295.5139 3320.3632,4295.5449 3320.6711,4295.5678 3320.9771,4295.5825 3321.2819,4295.5895 3321.5921,4295.59 3321.6998,4295.59 3416.1857,4295.586 3416.4987,4295.574 3416.8045,4295.554 3417.1098,4295.5264 3417.4132,4295.4899 3417.723,4295.4464 3418.0253,4295.3946 3418.3289,4295.3344 3418.6325,4295.2678 3418.9292,4295.1921 3419.229,4295.1098 3419.5224,4295.0187 3419.8177,4294.9197 3420.1115,4294.8154 3420.396,4294.7013 3420.6836,4294.5809 3420.966,4294.4534 3421.2442,4294.3171 3421.5226,4294.1752 3421.7941,4294.0245 3422.0651,4293.8709 3422.3252,4293.7058 3422.589,4293.5377 3422.8423,4293.3591 3423.0971,4293.1779 3423.3417,4292.9876 3423.585,4292.7919 3423.8222,4292.5916 3424.0526,4292.3817 3424.2818,4292.1697 3424.5014,4291.9483 3424.7192,4291.7269 3424.9258,4291.4949 3425.1314,4291.2601 3425.3287,4291.0224 3425.5182,4290.7741 3425.7057,4290.5242 3425.8844,4290.2689 3426.0571,4290.0112 3426.2219,4289.7474 3426.3811,4289.4828 3426.5314,4289.2093 3426.6775,4288.9341 3426.8156,4288.6564 3426.9458,4288.3746 3427.0692,4288.0901 3427.185,4287.8041 3427.2929,4287.5125 3427.3943,4287.2193 3427.4878,4286.9216 3427.5743,4286.6296 3427.6509,4286.3276 3427.7218,4286.0244 3427.7846,4285.7265 3427.8383,4285.4196 3427.8855,4285.1168 3427.9239,4284.8089 3427.9549,4284.5029 3427.9778,4284.1981 3427.9925,4283.8879 3427.9995,4283.7779 3428z" stroke="none" id="topBoardSolderReal" mask="url(#topBoardSolderMask)" fill="#002966" display="none"/><g id="topSignalReal" fill="#DCAA14" stroke="#DCAA14" display="none"><path d="M 4031.8222 3426.97969 L 4030.9488 3426.94414 4030.10762 3426.84334 4029.27694 3426.67685 4028.46188 3426.4457 4027.66748 3426.15131 4026.89862 3425.79551 4026.16004 3425.38047 4025.45631 3424.90877 4024.79175 3424.3833 4024.17047 3423.80732 4023.5963 3423.18437 4023.07277 3422.51828 4022.60312 3421.81318 4022.19024 3421.0734 4021.83667 3420.30351 4021.54459 3419.50825 4021.31582 3418.69252 4021.15175 3417.86136 4021.05339 3417.01989 4021.02 3416.1621 4021.02 3321.7279 4021.05586 3320.8388 4021.15666 3319.99762 4021.32315 3319.16694 4021.5543 3318.35188 4021.84869 3317.55748 4022.20449 3316.78862 4022.61953 3316.05004 4023.09123 3315.34631 4023.6167 3314.68175 4024.19268 3314.06047 4024.81563 3313.4863 4025.48172 3312.96277 4026.18682 3312.49312 4026.9266 3312.08024 4027.69649 3311.72667 4028.49175 3311.43459 4029.30748 3311.20582 4030.13864 3311.04175 4030.98011 3310.94339 4031.8379 3310.91 4283.7521 3310.91 4284.6412 3310.94586 4285.48238 3311.04666 4286.31306 3311.21315 4287.12812 3311.4443 4287.92252 3311.73869 4288.69138 3312.09449 4289.42996 3312.50953 4290.13369 3312.98123 4290.79825 3313.5067 4291.41953 3314.08268 4291.9937 3314.70563 4292.51723 3315.37172 4292.98688 3316.07682 4293.39976 3316.8166 4293.75333 3317.58649 4294.04541 3318.38175 4294.27418 3319.19748 4294.43825 3320.02864 4294.53661 3320.87011 4294.57 3321.7279 4294.57 3416.1621 4294.53414 3417.0512 4294.43334 3417.89238 4294.26685 3418.72306 4294.0357 3419.53812 4293.74131 3420.33252 4293.38551 3421.10138 4292.97047 3421.83996 4292.49877 3422.54369 4291.9733 3423.20825 4291.39732 3423.82953 4290.77437 3424.4037 4290.10828 3424.92723 4289.40318 3425.39688 4288.6634 3425.80976 4287.89351 3426.16333 4287.09825 3426.45541 4286.28252 3426.68418 4285.45136 3426.84825 4284.60989 3426.94661 4283.7521 3426.98 4031.8379 3426.98 4031.8222 3426.97969 Z M 4273.20225 3391.34063 L 4273.20225 3394.57125 4274.90953 3394.57125 4275.58589 3394.53327 4276.24266 3394.42168 4276.88281 3394.23725 4277.49829 3393.98231 4278.08135 3393.66007 4278.62467 3393.27456 4279.1214 3392.83065 4279.56531 3392.33392 4279.95082 3391.7906 4280.19951 3391.34063 4273.20225 3391.34063 Z M 4258.92275 3346.54938 L 4258.92275 3343.31875 4257.21547 3343.31875 4256.53911 3343.35673 4255.88234 3343.46832 4255.24219 3343.65275 4254.62671 3343.90769 4254.04365 3344.22993 4253.50033 3344.61544 4253.0036 3345.05935 4252.55969 3345.55608 4252.17418 3346.0994 4251.92549 3346.54938 4258.92275 3346.54938 Z M 4273.20225 3382.68875 L 4273.20225 3385.91937 4280.19951 3385.91937 4279.95082 3385.4694 4279.56531 3384.92608 4279.1214 3384.42935 4278.62467 3383.98544 4278.08135 3383.59993 4277.49829 3383.27769 4276.88281 3383.02275 4276.24266 3382.83832 4275.58589 3382.72673 4274.90953 3382.68875 4273.20225 3382.68875 Z M 4256.53911 3355.16327 L 4257.21547 3355.20125 4258.92275 3355.20125 4258.92275 3351.97063 4251.92549 3351.97063 4252.17418 3352.4206 4252.55969 3352.96392 4253.0036 3353.46065 4253.50033 3353.90456 4254.04365 3354.29007 4254.62671 3354.61231 4255.24219 3354.86725 4255.88234 3355.05168 4256.53911 3355.16327 Z M 4258.92275 3394.57125 L 4258.92275 3391.34063 4251.92549 3391.34063 4252.17418 3391.7906 4252.55969 3392.33392 4253.0036 3392.83065 4253.50033 3393.27456 4254.04365 3393.66007 4254.62671 3393.98231 4255.24219 3394.23725 4255.88234 3394.42168 4256.53911 3394.53327 4257.21547 3394.57125 4258.92275 3394.57125 Z M 4273.20225 3351.97063 L 4273.20225 3355.20125 4274.90953 3355.20125 4275.58589 3355.16327 4276.24266 3355.05168 4276.88281 3354.86725 4277.49829 3354.61231 4278.08135 3354.29007 4278.62467 3353.90456 4279.1214 3353.46065 4279.56531 3352.96392 4279.95082 3352.4206 4280.19951 3351.97063 4273.20225 3351.97063 Z M 4252.17418 3385.4694 L 4251.92549 3385.91937 4258.92275 3385.91937 4258.92275 3382.68875 4257.21547 3382.68875 4256.53911 3382.72673 4255.88234 3382.83832 4255.24219 3383.02275 4254.62671 3383.27769 4254.04365 3383.59993 4253.50033 3383.98544 4253.0036 3384.42935 4252.55969 3384.92608 4252.17418 3385.4694 Z M 4273.20225 3343.31875 L 4273.20225 3346.54938 4280.19951 3346.54938 4279.95082 3346.0994 4279.56531 3345.55608 4279.1214 3345.05935 4278.62467 3344.61544 4278.08135 3344.22993 4277.49829 3343.90769 4276.88281 3343.65275 4276.24266 3343.46832 4275.58589 3343.35673 4274.90953 3343.31875 4273.20225 3343.31875 Z M 4030.16161 3355.16327 L 4030.83797 3355.20125 4032.54525 3355.20125 4032.54525 3351.97063 4025.54799 3351.97063 4025.79668 3352.4206 4026.18219 3352.96392 4026.6261 3353.46065 4027.12283 3353.90456 4027.66615 3354.29007 4028.24921 3354.61231 4028.86469 3354.86725 4029.50484 3355.05168 4030.16161 3355.16327 Z M 4032.54525 3394.57125 L 4032.54525 3391.34063 4025.54799 3391.34063 4025.79668 3391.7906 4026.18219 3392.33392 4026.6261 3392.83065 4027.12283 3393.27456 4027.66615 3393.66007 4028.24921 3393.98231 4028.86469 3394.23725 4029.50484 3394.42168 4030.16161 3394.53327 4030.83797 3394.57125 4032.54525 3394.57125 Z M 4046.82475 3391.34063 L 4046.82475 3394.57125 4048.53203 3394.57125 4049.20839 3394.53327 4049.86516 3394.42168 4050.50531 3394.23725 4051.12079 3393.98231 4051.70385 3393.66007 4052.24717 3393.27456 4052.7439 3392.83065 4053.18781 3392.33392 4053.57332 3391.7906 4053.82201 3391.34063 4046.82475 3391.34063 Z M 4046.82475 3382.68875 L 4046.82475 3385.91937 4053.82201 3385.91937 4053.57332 3385.4694 4053.18781 3384.92608 4052.7439 3384.42935 4052.24717 3383.98544 4051.70385 3383.59993 4051.12079 3383.27769 4050.50531 3383.02275 4049.86516 3382.83832 4049.20839 3382.72673 4048.53203 3382.68875 4046.82475 3382.68875 Z M 4048.53203 3355.20125 L 4049.20839 3355.16327 4049.86516 3355.05168 4050.50531 3354.86725 4051.12079 3354.61231 4051.70385 3354.29007 4052.24717 3353.90456 4052.7439 3353.46065 4053.18781 3352.96392 4053.57332 3352.4206 4053.82201 3351.97063 4046.82475 3351.97063 4046.82475 3355.20125 4048.53203 3355.20125 Z M 4025.79668 3346.0994 L 4025.54799 3346.54938 4032.54525 3346.54938 4032.54525 3343.31875 4030.83797 3343.31875 4030.16161 3343.35673 4029.50484 3343.46832 4028.86469 3343.65275 4028.24921 3343.90769 4027.66615 3344.22993 4027.12283 3344.61544 4026.6261 3345.05935 4026.18219 3345.55608 4025.79668 3346.0994 Z M 4046.82475 3343.31875 L 4046.82475 3346.54938 4053.82201 3346.54938 4053.57332 3346.0994 4053.18781 3345.55608 4052.7439 3345.05935 4052.24717 3344.61544 4051.70385 3344.22993 4051.12079 3343.90769 4050.50531 3343.65275 4049.86516 3343.46832 4049.20839 3343.35673 4048.53203 3343.31875 4046.82475 3343.31875 Z M 4032.54525 3385.91937 L 4032.54525 3382.68875 4030.83797 3382.68875 4030.16161 3382.72673 4029.50484 3382.83832 4028.86469 3383.02275 4028.24921 3383.27769 4027.66615 3383.59993 4027.12283 3383.98544 4026.6261 3384.42935 4026.18219 3384.92608 4025.79668 3385.4694 4025.54799 3385.91937 4032.54525 3385.91937 Z " stroke-width="0" id="gge350_1"/><g c_partid="part_pad" c_etype="pinpart" layerid="11" id="gge128_11" c_origin="4039.685,3388.63" net="" c_rotation="0" c_width="27.559" c_height="9.8425"><polyline points="4030.8268 3388.63 4048.5433 3388.63" stroke-width="9.8425" c_etype="pad_shell"/></g><g c_partid="part_pad" c_etype="pinpart" layerid="11" id="gge146_11" c_origin="4039.685,3349.26" net="" c_rotation="0" c_width="27.559" c_height="9.8425"><polyline points="4030.8268 3349.26 4048.5433 3349.26" stroke-width="9.8425" c_etype="pad_shell"/></g><g c_partid="part_pad" c_etype="pinpart" layerid="11" id="gge164_11" c_origin="4266.063,3349.26" net="" c_rotation="0" c_width="27.559" c_height="9.8425"><polyline points="4257.2048 3349.26 4274.9213 3349.26" stroke-width="9.8425" c_etype="pad_shell"/></g><g c_partid="part_pad" c_etype="pinpart" layerid="11" id="gge182_11" c_origin="4266.063,3388.63" net="" c_rotation="0" c_width="27.559" c_height="9.8425"><polyline points="4257.2048 3388.63 4274.9213 3388.63" stroke-width="9.8425" c_etype="pad_shell"/></g></g><g id="topSignalSolderReal" mask="url(#topSignalSolderMask)" fill="#005CB6" stroke="#005CB6" display="none"><path d="M 4031.8222 3426.97969 L 4030.9488 3426.94414 4030.10762 3426.84334 4029.27694 3426.67685 4028.46188 3426.4457 4027.66748 3426.15131 4026.89862 3425.79551 4026.16004 3425.38047 4025.45631 3424.90877 4024.79175 3424.3833 4024.17047 3423.80732 4023.5963 3423.18437 4023.07277 3422.51828 4022.60312 3421.81318 4022.19024 3421.0734 4021.83667 3420.30351 4021.54459 3419.50825 4021.31582 3418.69252 4021.15175 3417.86136 4021.05339 3417.01989 4021.02 3416.1621 4021.02 3321.7279 4021.05586 3320.8388 4021.15666 3319.99762 4021.32315 3319.16694 4021.5543 3318.35188 4021.84869 3317.55748 4022.20449 3316.78862 4022.61953 3316.05004 4023.09123 3315.34631 4023.6167 3314.68175 4024.19268 3314.06047 4024.81563 3313.4863 4025.48172 3312.96277 4026.18682 3312.49312 4026.9266 3312.08024 4027.69649 3311.72667 4028.49175 3311.43459 4029.30748 3311.20582 4030.13864 3311.04175 4030.98011 3310.94339 4031.8379 3310.91 4283.7521 3310.91 4284.6412 3310.94586 4285.48238 3311.04666 4286.31306 3311.21315 4287.12812 3311.4443 4287.92252 3311.73869 4288.69138 3312.09449 4289.42996 3312.50953 4290.13369 3312.98123 4290.79825 3313.5067 4291.41953 3314.08268 4291.9937 3314.70563 4292.51723 3315.37172 4292.98688 3316.07682 4293.39976 3316.8166 4293.75333 3317.58649 4294.04541 3318.38175 4294.27418 3319.19748 4294.43825 3320.02864 4294.53661 3320.87011 4294.57 3321.7279 4294.57 3416.1621 4294.53414 3417.0512 4294.43334 3417.89238 4294.26685 3418.72306 4294.0357 3419.53812 4293.74131 3420.33252 4293.38551 3421.10138 4292.97047 3421.83996 4292.49877 3422.54369 4291.9733 3423.20825 4291.39732 3423.82953 4290.77437 3424.4037 4290.10828 3424.92723 4289.40318 3425.39688 4288.6634 3425.80976 4287.89351 3426.16333 4287.09825 3426.45541 4286.28252 3426.68418 4285.45136 3426.84825 4284.60989 3426.94661 4283.7521 3426.98 4031.8379 3426.98 4031.8222 3426.97969 Z M 4273.20225 3391.34063 L 4273.20225 3394.57125 4274.90953 3394.57125 4275.58589 3394.53327 4276.24266 3394.42168 4276.88281 3394.23725 4277.49829 3393.98231 4278.08135 3393.66007 4278.62467 3393.27456 4279.1214 3392.83065 4279.56531 3392.33392 4279.95082 3391.7906 4280.19951 3391.34063 4273.20225 3391.34063 Z M 4258.92275 3346.54938 L 4258.92275 3343.31875 4257.21547 3343.31875 4256.53911 3343.35673 4255.88234 3343.46832 4255.24219 3343.65275 4254.62671 3343.90769 4254.04365 3344.22993 4253.50033 3344.61544 4253.0036 3345.05935 4252.55969 3345.55608 4252.17418 3346.0994 4251.92549 3346.54938 4258.92275 3346.54938 Z M 4273.20225 3382.68875 L 4273.20225 3385.91937 4280.19951 3385.91937 4279.95082 3385.4694 4279.56531 3384.92608 4279.1214 3384.42935 4278.62467 3383.98544 4278.08135 3383.59993 4277.49829 3383.27769 4276.88281 3383.02275 4276.24266 3382.83832 4275.58589 3382.72673 4274.90953 3382.68875 4273.20225 3382.68875 Z M 4256.53911 3355.16327 L 4257.21547 3355.20125 4258.92275 3355.20125 4258.92275 3351.97063 4251.92549 3351.97063 4252.17418 3352.4206 4252.55969 3352.96392 4253.0036 3353.46065 4253.50033 3353.90456 4254.04365 3354.29007 4254.62671 3354.61231 4255.24219 3354.86725 4255.88234 3355.05168 4256.53911 3355.16327 Z M 4258.92275 3394.57125 L 4258.92275 3391.34063 4251.92549 3391.34063 4252.17418 3391.7906 4252.55969 3392.33392 4253.0036 3392.83065 4253.50033 3393.27456 4254.04365 3393.66007 4254.62671 3393.98231 4255.24219 3394.23725 4255.88234 3394.42168 4256.53911 3394.53327 4257.21547 3394.57125 4258.92275 3394.57125 Z M 4273.20225 3351.97063 L 4273.20225 3355.20125 4274.90953 3355.20125 4275.58589 3355.16327 4276.24266 3355.05168 4276.88281 3354.86725 4277.49829 3354.61231 4278.08135 3354.29007 4278.62467 3353.90456 4279.1214 3353.46065 4279.56531 3352.96392 4279.95082 3352.4206 4280.19951 3351.97063 4273.20225 3351.97063 Z M 4252.17418 3385.4694 L 4251.92549 3385.91937 4258.92275 3385.91937 4258.92275 3382.68875 4257.21547 3382.68875 4256.53911 3382.72673 4255.88234 3382.83832 4255.24219 3383.02275 4254.62671 3383.27769 4254.04365 3383.59993 4253.50033 3383.98544 4253.0036 3384.42935 4252.55969 3384.92608 4252.17418 3385.4694 Z M 4273.20225 3343.31875 L 4273.20225 3346.54938 4280.19951 3346.54938 4279.95082 3346.0994 4279.56531 3345.55608 4279.1214 3345.05935 4278.62467 3344.61544 4278.08135 3344.22993 4277.49829 3343.90769 4276.88281 3343.65275 4276.24266 3343.46832 4275.58589 3343.35673 4274.90953 3343.31875 4273.20225 3343.31875 Z M 4030.16161 3355.16327 L 4030.83797 3355.20125 4032.54525 3355.20125 4032.54525 3351.97063 4025.54799 3351.97063 4025.79668 3352.4206 4026.18219 3352.96392 4026.6261 3353.46065 4027.12283 3353.90456 4027.66615 3354.29007 4028.24921 3354.61231 4028.86469 3354.86725 4029.50484 3355.05168 4030.16161 3355.16327 Z M 4032.54525 3394.57125 L 4032.54525 3391.34063 4025.54799 3391.34063 4025.79668 3391.7906 4026.18219 3392.33392 4026.6261 3392.83065 4027.12283 3393.27456 4027.66615 3393.66007 4028.24921 3393.98231 4028.86469 3394.23725 4029.50484 3394.42168 4030.16161 3394.53327 4030.83797 3394.57125 4032.54525 3394.57125 Z M 4046.82475 3391.34063 L 4046.82475 3394.57125 4048.53203 3394.57125 4049.20839 3394.53327 4049.86516 3394.42168 4050.50531 3394.23725 4051.12079 3393.98231 4051.70385 3393.66007 4052.24717 3393.27456 4052.7439 3392.83065 4053.18781 3392.33392 4053.57332 3391.7906 4053.82201 3391.34063 4046.82475 3391.34063 Z M 4046.82475 3382.68875 L 4046.82475 3385.91937 4053.82201 3385.91937 4053.57332 3385.4694 4053.18781 3384.92608 4052.7439 3384.42935 4052.24717 3383.98544 4051.70385 3383.59993 4051.12079 3383.27769 4050.50531 3383.02275 4049.86516 3382.83832 4049.20839 3382.72673 4048.53203 3382.68875 4046.82475 3382.68875 Z M 4048.53203 3355.20125 L 4049.20839 3355.16327 4049.86516 3355.05168 4050.50531 3354.86725 4051.12079 3354.61231 4051.70385 3354.29007 4052.24717 3353.90456 4052.7439 3353.46065 4053.18781 3352.96392 4053.57332 3352.4206 4053.82201 3351.97063 4046.82475 3351.97063 4046.82475 3355.20125 4048.53203 3355.20125 Z M 4025.79668 3346.0994 L 4025.54799 3346.54938 4032.54525 3346.54938 4032.54525 3343.31875 4030.83797 3343.31875 4030.16161 3343.35673 4029.50484 3343.46832 4028.86469 3343.65275 4028.24921 3343.90769 4027.66615 3344.22993 4027.12283 3344.61544 4026.6261 3345.05935 4026.18219 3345.55608 4025.79668 3346.0994 Z M 4046.82475 3343.31875 L 4046.82475 3346.54938 4053.82201 3346.54938 4053.57332 3346.0994 4053.18781 3345.55608 4052.7439 3345.05935 4052.24717 3344.61544 4051.70385 3344.22993 4051.12079 3343.90769 4050.50531 3343.65275 4049.86516 3343.46832 4049.20839 3343.35673 4048.53203 3343.31875 4046.82475 3343.31875 Z M 4032.54525 3385.91937 L 4032.54525 3382.68875 4030.83797 3382.68875 4030.16161 3382.72673 4029.50484 3382.83832 4028.86469 3383.02275 4028.24921 3383.27769 4027.66615 3383.59993 4027.12283 3383.98544 4026.6261 3384.42935 4026.18219 3384.92608 4025.79668 3385.4694 4025.54799 3385.91937 4032.54525 3385.91937 Z " stroke-width="0" id="gge350_1"/><g c_partid="part_pad" c_etype="pinpart" layerid="11" id="gge128_11" c_origin="4039.685,3388.63" net="" c_rotation="0" c_width="27.559" c_height="9.8425"><polyline points="4030.8268 3388.63 4048.5433 3388.63" stroke-width="9.8425" c_etype="pad_shell"/></g><g c_partid="part_pad" c_etype="pinpart" layerid="11" id="gge146_11" c_origin="4039.685,3349.26" net="" c_rotation="0" c_width="27.559" c_height="9.8425"><polyline points="4030.8268 3349.26 4048.5433 3349.26" stroke-width="9.8425" c_etype="pad_shell"/></g><g c_partid="part_pad" c_etype="pinpart" layerid="11" id="gge164_11" c_origin="4266.063,3349.26" net="" c_rotation="0" c_width="27.559" c_height="9.8425"><polyline points="4257.2048 3349.26 4274.9213 3349.26" stroke-width="9.8425" c_etype="pad_shell"/></g><g c_partid="part_pad" c_etype="pinpart" layerid="11" id="gge182_11" c_origin="4266.063,3388.63" net="" c_rotation="0" c_width="27.559" c_height="9.8425"><polyline points="4257.2048 3388.63 4274.9213 3388.63" stroke-width="9.8425" c_etype="pad_shell"/></g></g><g id="topSilkLayer" fill="#FFFFFF" stroke="#FFFFFF" display="none"><g c_partid="part_pcbtext" c_etype="pinpart" c_origin="4088.898,3418.158" c_rotation="0" c_mirror="0" id="gge338_3" locked="0" layerid="3" c_shapetype="group"><path c_fontsize="8" c_fontfamily="" c_text="Do not remove this label" d="M 4088.8975 3410.0815 L 4088.8975 3417.7215 M 4088.8975 3410.0815 L 4091.4475 3410.0815 L 4092.5375 3410.4515 L 4093.2575 3411.1715 L 4093.6275 3411.9015 L 4093.9875 3412.9915 L 4093.9875 3414.8115 L 4093.6275 3415.9015 L 4093.2575 3416.6315 L 4092.5375 3417.3615 L 4091.4475 3417.7215 L 4088.8975 3417.7215 M 4098.2075 3412.6315 L 4097.4775 3412.9915 L 4096.7475 3413.7215 L 4096.3875 3414.8115 L 4096.3875 3415.5415 L 4096.7475 3416.6315 L 4097.4775 3417.3615 L 4098.2075 3417.7215 L 4099.2975 3417.7215 L 4100.0275 3417.3615 L 4100.7475 3416.6315 L 4101.1175 3415.5415 L 4101.1175 3414.8115 L 4100.7475 3413.7215 L 4100.0275 3412.9915 L 4099.2975 3412.6315 L 4098.2075 3412.6315 M 4109.1175 3412.6315 L 4109.1175 3417.7215 M 4109.1175 3414.0815 L 4110.2075 3412.9915 L 4110.9375 3412.6315 L 4112.0275 3412.6315 L 4112.7475 3412.9915 L 4113.1175 3414.0815 L 4113.1175 3417.7215 M 4117.3375 3412.6315 L 4116.6075 3412.9915 L 4115.8775 3413.7215 L 4115.5175 3414.8115 L 4115.5175 3415.5415 L 4115.8775 3416.6315 L 4116.6075 3417.3615 L 4117.3375 3417.7215 L 4118.4275 3417.7215 L 4119.1475 3417.3615 L 4119.8775 3416.6315 L 4120.2475 3415.5415 L 4120.2475 3414.8115 L 4119.8775 3413.7215 L 4119.1475 3412.9915 L 4118.4275 3412.6315 L 4117.3375 3412.6315 M 4123.7375 3410.0815 L 4123.7375 3416.2715 L 4124.0975 3417.3615 L 4124.8275 3417.7215 L 4125.5475 3417.7215 M 4122.6475 3412.6315 L 4125.1875 3412.6315 M 4133.5475 3412.6315 L 4133.5475 3417.7215 M 4133.5475 3414.8115 L 4133.9175 3413.7215 L 4134.6475 3412.9915 L 4135.3675 3412.6315 L 4136.4575 3412.6315 M 4138.8575 3414.8115 L 4143.2275 3414.8115 L 4143.2275 3414.0815 L 4142.8575 3413.3615 L 4142.4975 3412.9915 L 4141.7675 3412.6315 L 4140.6775 3412.6315 L 4139.9475 3412.9915 L 4139.2275 3413.7215 L 4138.8575 3414.8115 L 4138.8575 3415.5415 L 4139.2275 3416.6315 L 4139.9475 3417.3615 L 4140.6775 3417.7215 L 4141.7675 3417.7215 L 4142.4975 3417.3615 L 4143.2275 3416.6315 M 4145.6275 3412.6315 L 4145.6275 3417.7215 M 4145.6275 3414.0815 L 4146.7175 3412.9915 L 4147.4475 3412.6315 L 4148.5375 3412.6315 L 4149.2575 3412.9915 L 4149.6275 3414.0815 L 4149.6275 3417.7215 M 4149.6275 3414.0815 L 4150.7175 3412.9915 L 4151.4475 3412.6315 L 4152.5375 3412.6315 L 4153.2575 3412.9915 L 4153.6275 3414.0815 L 4153.6275 3417.7215 M 4157.8475 3412.6315 L 4157.1175 3412.9915 L 4156.3875 3413.7215 L 4156.0275 3414.8115 L 4156.0275 3415.5415 L 4156.3875 3416.6315 L 4157.1175 3417.3615 L 4157.8475 3417.7215 L 4158.9375 3417.7215 L 4159.6575 3417.3615 L 4160.3875 3416.6315 L 4160.7475 3415.5415 L 4160.7475 3414.8115 L 4160.3875 3413.7215 L 4159.6575 3412.9915 L 4158.9375 3412.6315 L 4157.8475 3412.6315 M 4163.1475 3412.6315 L 4165.3375 3417.7215 M 4167.5175 3412.6315 L 4165.3375 3417.7215 M 4169.9175 3414.8115 L 4174.2775 3414.8115 L 4174.2775 3414.0815 L 4173.9175 3413.3615 L 4173.5475 3412.9915 L 4172.8275 3412.6315 L 4171.7375 3412.6315 L 4171.0075 3412.9915 L 4170.2775 3413.7215 L 4169.9175 3414.8115 L 4169.9175 3415.5415 L 4170.2775 3416.6315 L 4171.0075 3417.3615 L 4171.7375 3417.7215 L 4172.8275 3417.7215 L 4173.5475 3417.3615 L 4174.2775 3416.6315 M 4183.3675 3410.0815 L 4183.3675 3416.2715 L 4183.7375 3417.3615 L 4184.4575 3417.7215 L 4185.1875 3417.7215 M 4182.2775 3412.6315 L 4184.8275 3412.6315 M 4187.5875 3410.0815 L 4187.5875 3417.7215 M 4187.5875 3414.0815 L 4188.6775 3412.9915 L 4189.4075 3412.6315 L 4190.4975 3412.6315 L 4191.2275 3412.9915 L 4191.5875 3414.0815 L 4191.5875 3417.7215 M 4193.9875 3410.0815 L 4194.3475 3410.4515 L 4194.7175 3410.0815 L 4194.3475 3409.7215 L 4193.9875 3410.0815 M 4194.3475 3412.6315 L 4194.3475 3417.7215 M 4201.1175 3413.7215 L 4200.7475 3412.9915 L 4199.6575 3412.6315 L 4198.5675 3412.6315 L 4197.4775 3412.9915 L 4197.1175 3413.7215 L 4197.4775 3414.4515 L 4198.2075 3414.8115 L 4200.0275 3415.1715 L 4200.7475 3415.5415 L 4201.1175 3416.2715 L 4201.1175 3416.6315 L 4200.7475 3417.3615 L 4199.6575 3417.7215 L 4198.5675 3417.7215 L 4197.4775 3417.3615 L 4197.1175 3416.6315 M 4209.1175 3410.0815 L 4209.1175 3417.7215 M 4215.8775 3412.6315 L 4215.8775 3417.7215 M 4215.8775 3413.7215 L 4215.1475 3412.9915 L 4214.4275 3412.6315 L 4213.3375 3412.6315 L 4212.6075 3412.9915 L 4211.8775 3413.7215 L 4211.5175 3414.8115 L 4211.5175 3415.5415 L 4211.8775 3416.6315 L 4212.6075 3417.3615 L 4213.3375 3417.7215 L 4214.4275 3417.7215 L 4215.1475 3417.3615 L 4215.8775 3416.6315 M 4218.2775 3410.0815 L 4218.2775 3417.7215 M 4218.2775 3413.7215 L 4219.0075 3412.9915 L 4219.7375 3412.6315 L 4220.8275 3412.6315 L 4221.5475 3412.9915 L 4222.2775 3413.7215 L 4222.6475 3414.8115 L 4222.6475 3415.5415 L 4222.2775 3416.6315 L 4221.5475 3417.3615 L 4220.8275 3417.7215 L 4219.7375 3417.7215 L 4219.0075 3417.3615 L 4218.2775 3416.6315 M 4225.0475 3414.8115 L 4229.4075 3414.8115 L 4229.4075 3414.0815 L 4229.0475 3413.3615 L 4228.6775 3412.9915 L 4227.9475 3412.6315 L 4226.8575 3412.6315 L 4226.1375 3412.9915 L 4225.4075 3413.7215 L 4225.0475 3414.8115 L 4225.0475 3415.5415 L 4225.4075 3416.6315 L 4226.1375 3417.3615 L 4226.8575 3417.7215 L 4227.9475 3417.7215 L 4228.6775 3417.3615 L 4229.4075 3416.6315 M 4231.8075 3410.0815 L 4231.8075 3417.7215" fill="none" stroke-width="0.8"/></g><path d="M 4236.535 3398.4725 L 4236.535 3319.7325 L 4079.055 3319.7325 L 4079.055 3398.4725 Z" stroke-width="0" c_shapetype="line" net="" type="solid" layerid="3" id="gge290_3" locked="0" c_teardrop="" c_targetpad="" c_targetwire=""/></g><path d="M4031.8143 3428,4031.5013 3427.996,4031.1955 3427.984,4030.8902 3427.964,4030.5868 3427.9364,4030.277 3427.8999,4029.9747 3427.8564,4029.6711 3427.8046,4029.3675 3427.7444,4029.0708 3427.6778,4028.771 3427.6021,4028.4776 3427.5198,4028.1823 3427.4287,4027.8885 3427.3297,4027.604 3427.2254,4027.3164 3427.1113,4027.0329 3426.9904,4026.7558 3426.8634,4026.4774 3426.7271,4026.2059 3426.5852,4025.9349 3426.4345,4025.6748 3426.2809,4025.411 3426.1158,4025.1577 3425.9477,4024.9029 3425.7691,4024.6583 3425.5879,4024.415 3425.3976,4024.1778 3425.2019,4023.9474 3425.0016,4023.7182 3424.7917,4023.4986 3424.5797,4023.2808 3424.3583,4023.0742 3424.1369,4022.8686 3423.9049,4022.6713 3423.6701,4022.4818 3423.4324,4022.2943 3423.1841,4022.1156 3422.9342,4021.9429 3422.6789,4021.7781 3422.4212,4021.6189 3422.1574,4021.4686 3421.8928,4021.3225 3421.6193,4021.1844 3421.3441,4021.0542 3421.0664,4020.9308 3420.7846,4020.815 3420.5001,4020.7071 3420.2141,4020.6057 3419.9225,4020.5122 3419.6293,4020.4257 3419.3316,4020.3491 3419.0396,4020.2782 3418.7376,4020.2154 3418.4344,4020.1617 3418.1365,4020.1145 3417.8296,4020.0761 3417.5268,4020.0451 3417.2189,4020.0222 3416.9129,4020.0075 3416.6081,4020.0005 3416.2979,4020 3416.1879,4020 3321.7043,4020.004 3321.3913,4020.016 3321.0855,4020.036 3320.7802,4020.0636 3320.4768,4020.1001 3320.167,4020.1436 3319.8647,4020.1954 3319.5611,4020.2556 3319.2575,4020.3222 3318.9608,4020.3979 3318.661,4020.4802 3318.3676,4020.5713 3318.0723,4020.6703 3317.7785,4020.7746 3317.494,4020.8887 3317.2064,4021.0091 3316.924,4021.1366 3316.6458,4021.2729 3316.3674,4021.4148 3316.0959,4021.5655 3315.8249,4021.7191 3315.5648,4021.8842 3315.301,4022.0523 3315.0477,4022.2309 3314.7929,4022.4121 3314.5483,4022.6024 3314.305,4022.7981 3314.0678,4022.9984 3313.8374,4023.2083 3313.6082,4023.4208 3313.3881,4023.6417 3313.1708,4023.8631 3312.9642,4024.0951 3312.7586,4024.3299 3312.5613,4024.5676 3312.3718,4024.8159 3312.1843,4025.0658 3312.0056,4025.3211 3311.8329,4025.5788 3311.6681,4025.8426 3311.5089,4026.1072 3311.3586,4026.3807 3311.2125,4026.6559 3311.0744,4026.9336 3310.9442,4027.2154 3310.8208,4027.4999 3310.705,4027.7859 3310.5971,4028.0775 3310.4957,4028.3707 3310.4022,4028.6684 3310.3157,4028.9604 3310.2391,4029.2624 3310.1682,4029.5656 3310.1054,4029.8635 3310.0517,4030.1704 3310.0045,4030.4732 3309.9661,4030.7811 3309.9351,4031.0871 3309.9122,4031.3919 3309.8975,4031.7021 3309.8905,4031.8121 3309.89,4283.7757 3309.89,4284.0887 3309.894,4284.3945 3309.906,4284.6998 3309.926,4285.0032 3309.9536,4285.313 3309.9901,4285.6153 3310.0336,4285.9189 3310.0854,4286.2225 3310.1456,4286.5192 3310.2122,4286.819 3310.2879,4287.1124 3310.3702,4287.4077 3310.4613,4287.7015 3310.5603,4287.986 3310.6646,4288.2736 3310.7787,4288.556 3310.8991,4288.8342 3311.0266,4289.1126 3311.1629,4289.3841 3311.3048,4289.6551 3311.4555,4289.9152 3311.6091,4290.179 3311.7742,4290.4323 3311.9423,4290.6871 3312.1209,4290.9317 3312.3021,4291.175 3312.4924,4291.4122 3312.6881,4291.6426 3312.8884,4291.8718 3313.0983,4292.0914 3313.3103,4292.3092 3313.5317,4292.5158 3313.7531,4292.7214 3313.9851,4292.9187 3314.2199,4293.1082 3314.4576,4293.2957 3314.7059,4293.4744 3314.9557,4293.6465 3315.2103,4293.8119 3315.4688,4293.9711 3315.7326,4294.1214 3315.9972,4294.2675 3316.2707,4294.4056 3316.5459,4294.5358 3316.8236,4294.6592 3317.1054,4294.775 3317.3899,4294.8829 3317.6759,4294.9843 3317.9675,4295.0778 3318.2607,4295.1643 3318.5584,4295.2409 3318.8504,4295.3118 3319.1524,4295.3746 3319.4556,4295.4283 3319.7535,4295.4755 3320.0604,4295.5139 3320.3632,4295.5449 3320.6711,4295.5678 3320.9771,4295.5825 3321.2819,4295.5895 3321.5921,4295.59 3321.6998,4295.59 3416.1857,4295.586 3416.4987,4295.574 3416.8045,4295.554 3417.1098,4295.5264 3417.4132,4295.4899 3417.723,4295.4464 3418.0253,4295.3946 3418.3289,4295.3344 3418.6325,4295.2678 3418.9292,4295.1921 3419.229,4295.1098 3419.5224,4295.0187 3419.8177,4294.9197 3420.1115,4294.8154 3420.396,4294.7013 3420.6836,4294.5809 3420.966,4294.4534 3421.2442,4294.3171 3421.5226,4294.1752 3421.7941,4294.0245 3422.0651,4293.8709 3422.3252,4293.7058 3422.589,4293.5377 3422.8423,4293.3591 3423.0971,4293.1779 3423.3417,4292.9876 3423.585,4292.7919 3423.8222,4292.5916 3424.0526,4292.3817 3424.2818,4292.1697 3424.5014,4291.9483 3424.7192,4291.7269 3424.9258,4291.4949 3425.1314,4291.2601 3425.3287,4291.0224 3425.5182,4290.7741 3425.7057,4290.5242 3425.8844,4290.2689 3426.0571,4290.0112 3426.2219,4289.7474 3426.3811,4289.4828 3426.5314,4289.2093 3426.6775,4288.9341 3426.8156,4288.6564 3426.9458,4288.3746 3427.0692,4288.0901 3427.185,4287.8041 3427.2929,4287.5125 3427.3943,4287.2193 3427.4878,4286.9216 3427.5743,4286.6296 3427.6509,4286.3276 3427.7218,4286.0244 3427.7846,4285.7265 3427.8383,4285.4196 3427.8855,4285.1168 3427.9239,4284.8089 3427.9549,4284.5029 3427.9778,4284.1981 3427.9925,4283.8879 3427.9995,4283.7779 3428z" stroke="none" id="bottomBoardSolderReal" mask="url(#bottomBoardSolderMask)" fill="#002966"/><g id="bottomSignalReal" fill="#DCAA14" stroke="#DCAA14"><path d="M 4031.8222 3426.97969 L 4030.9488 3426.94414 4030.10762 3426.84334 4029.27694 3426.67685 4028.46188 3426.4457 4027.66748 3426.15131 4026.89862 3425.79551 4026.16004 3425.38047 4025.45631 3424.90877 4024.79175 3424.3833 4024.17047 3423.80732 4023.5963 3423.18437 4023.07277 3422.51828 4022.60312 3421.81318 4022.19024 3421.0734 4021.83667 3420.30351 4021.54459 3419.50825 4021.31582 3418.69252 4021.15175 3417.86136 4021.05339 3417.01989 4021.02 3416.1621 4021.02 3321.7279 4021.05586 3320.8388 4021.15666 3319.99762 4021.32315 3319.16694 4021.5543 3318.35188 4021.84869 3317.55748 4022.20449 3316.78862 4022.61953 3316.05004 4023.09123 3315.34631 4023.6167 3314.68175 4024.19268 3314.06047 4024.81563 3313.4863 4025.48172 3312.96277 4026.18682 3312.49312 4026.9266 3312.08024 4027.69649 3311.72667 4028.49175 3311.43459 4029.30748 3311.20582 4030.13864 3311.04175 4030.98011 3310.94339 4031.8379 3310.91 4283.7521 3310.91 4284.6412 3310.94586 4285.48238 3311.04666 4286.31306 3311.21315 4287.12812 3311.4443 4287.92252 3311.73869 4288.69138 3312.09449 4289.42996 3312.50953 4290.13369 3312.98123 4290.79825 3313.5067 4291.41953 3314.08268 4291.9937 3314.70563 4292.51723 3315.37172 4292.98688 3316.07682 4293.39976 3316.8166 4293.75333 3317.58649 4294.04541 3318.38175 4294.27418 3319.19748 4294.43825 3320.02864 4294.53661 3320.87011 4294.57 3321.7279 4294.57 3416.1621 4294.53414 3417.0512 4294.43334 3417.89238 4294.26685 3418.72306 4294.0357 3419.53812 4293.74131 3420.33252 4293.38551 3421.10138 4292.97047 3421.83996 4292.49877 3422.54369 4291.9733 3423.20825 4291.39732 3423.82953 4290.77437 3424.4037 4290.10828 3424.92723 4289.40318 3425.39688 4288.6634 3425.80976 4287.89351 3426.16333 4287.09825 3426.45541 4286.28252 3426.68418 4285.45136 3426.84825 4284.60989 3426.94661 4283.7521 3426.98 4031.8379 3426.98 4031.8222 3426.97969 Z M 4273.20225 3391.34063 L 4273.20225 3394.57125 4274.90953 3394.57125 4275.58589 3394.53327 4276.24266 3394.42168 4276.88281 3394.23725 4277.49829 3393.98231 4278.08135 3393.66007 4278.62467 3393.27456 4279.1214 3392.83065 4279.56531 3392.33392 4279.95082 3391.7906 4280.19951 3391.34063 4273.20225 3391.34063 Z M 4258.92275 3346.54938 L 4258.92275 3343.31875 4257.21547 3343.31875 4256.53911 3343.35673 4255.88234 3343.46832 4255.24219 3343.65275 4254.62671 3343.90769 4254.04365 3344.22993 4253.50033 3344.61544 4253.0036 3345.05935 4252.55969 3345.55608 4252.17418 3346.0994 4251.92549 3346.54938 4258.92275 3346.54938 Z M 4273.20225 3382.68875 L 4273.20225 3385.91937 4280.19951 3385.91937 4279.95082 3385.4694 4279.56531 3384.92608 4279.1214 3384.42935 4278.62467 3383.98544 4278.08135 3383.59993 4277.49829 3383.27769 4276.88281 3383.02275 4276.24266 3382.83832 4275.58589 3382.72673 4274.90953 3382.68875 4273.20225 3382.68875 Z M 4256.53911 3355.16327 L 4257.21547 3355.20125 4258.92275 3355.20125 4258.92275 3351.97063 4251.92549 3351.97063 4252.17418 3352.4206 4252.55969 3352.96392 4253.0036 3353.46065 4253.50033 3353.90456 4254.04365 3354.29007 4254.62671 3354.61231 4255.24219 3354.86725 4255.88234 3355.05168 4256.53911 3355.16327 Z M 4258.92275 3394.57125 L 4258.92275 3391.34063 4251.92549 3391.34063 4252.17418 3391.7906 4252.55969 3392.33392 4253.0036 3392.83065 4253.50033 3393.27456 4254.04365 3393.66007 4254.62671 3393.98231 4255.24219 3394.23725 4255.88234 3394.42168 4256.53911 3394.53327 4257.21547 3394.57125 4258.92275 3394.57125 Z M 4273.20225 3351.97063 L 4273.20225 3355.20125 4274.90953 3355.20125 4275.58589 3355.16327 4276.24266 3355.05168 4276.88281 3354.86725 4277.49829 3354.61231 4278.08135 3354.29007 4278.62467 3353.90456 4279.1214 3353.46065 4279.56531 3352.96392 4279.95082 3352.4206 4280.19951 3351.97063 4273.20225 3351.97063 Z M 4252.17418 3385.4694 L 4251.92549 3385.91937 4258.92275 3385.91937 4258.92275 3382.68875 4257.21547 3382.68875 4256.53911 3382.72673 4255.88234 3382.83832 4255.24219 3383.02275 4254.62671 3383.27769 4254.04365 3383.59993 4253.50033 3383.98544 4253.0036 3384.42935 4252.55969 3384.92608 4252.17418 3385.4694 Z M 4273.20225 3343.31875 L 4273.20225 3346.54938 4280.19951 3346.54938 4279.95082 3346.0994 4279.56531 3345.55608 4279.1214 3345.05935 4278.62467 3344.61544 4278.08135 3344.22993 4277.49829 3343.90769 4276.88281 3343.65275 4276.24266 3343.46832 4275.58589 3343.35673 4274.90953 3343.31875 4273.20225 3343.31875 Z M 4030.16161 3355.16327 L 4030.83797 3355.20125 4032.54525 3355.20125 4032.54525 3351.97063 4025.54799 3351.97063 4025.79668 3352.4206 4026.18219 3352.96392 4026.6261 3353.46065 4027.12283 3353.90456 4027.66615 3354.29007 4028.24921 3354.61231 4028.86469 3354.86725 4029.50484 3355.05168 4030.16161 3355.16327 Z M 4032.54525 3394.57125 L 4032.54525 3391.34063 4025.54799 3391.34063 4025.79668 3391.7906 4026.18219 3392.33392 4026.6261 3392.83065 4027.12283 3393.27456 4027.66615 3393.66007 4028.24921 3393.98231 4028.86469 3394.23725 4029.50484 3394.42168 4030.16161 3394.53327 4030.83797 3394.57125 4032.54525 3394.57125 Z M 4046.82475 3391.34063 L 4046.82475 3394.57125 4048.53203 3394.57125 4049.20839 3394.53327 4049.86516 3394.42168 4050.50531 3394.23725 4051.12079 3393.98231 4051.70385 3393.66007 4052.24717 3393.27456 4052.7439 3392.83065 4053.18781 3392.33392 4053.57332 3391.7906 4053.82201 3391.34063 4046.82475 3391.34063 Z M 4046.82475 3382.68875 L 4046.82475 3385.91937 4053.82201 3385.91937 4053.57332 3385.4694 4053.18781 3384.92608 4052.7439 3384.42935 4052.24717 3383.98544 4051.70385 3383.59993 4051.12079 3383.27769 4050.50531 3383.02275 4049.86516 3382.83832 4049.20839 3382.72673 4048.53203 3382.68875 4046.82475 3382.68875 Z M 4048.53203 3355.20125 L 4049.20839 3355.16327 4049.86516 3355.05168 4050.50531 3354.86725 4051.12079 3354.61231 4051.70385 3354.29007 4052.24717 3353.90456 4052.7439 3353.46065 4053.18781 3352.96392 4053.57332 3352.4206 4053.82201 3351.97063 4046.82475 3351.97063 4046.82475 3355.20125 4048.53203 3355.20125 Z M 4025.79668 3346.0994 L 4025.54799 3346.54938 4032.54525 3346.54938 4032.54525 3343.31875 4030.83797 3343.31875 4030.16161 3343.35673 4029.50484 3343.46832 4028.86469 3343.65275 4028.24921 3343.90769 4027.66615 3344.22993 4027.12283 3344.61544 4026.6261 3345.05935 4026.18219 3345.55608 4025.79668 3346.0994 Z M 4046.82475 3343.31875 L 4046.82475 3346.54938 4053.82201 3346.54938 4053.57332 3346.0994 4053.18781 3345.55608 4052.7439 3345.05935 4052.24717 3344.61544 4051.70385 3344.22993 4051.12079 3343.90769 4050.50531 3343.65275 4049.86516 3343.46832 4049.20839 3343.35673 4048.53203 3343.31875 4046.82475 3343.31875 Z M 4032.54525 3385.91937 L 4032.54525 3382.68875 4030.83797 3382.68875 4030.16161 3382.72673 4029.50484 3382.83832 4028.86469 3383.02275 4028.24921 3383.27769 4027.66615 3383.59993 4027.12283 3383.98544 4026.6261 3384.42935 4026.18219 3384.92608 4025.79668 3385.4694 4025.54799 3385.91937 4032.54525 3385.91937 Z " stroke-width="0" id="gge341_2"/><g c_partid="part_pad" c_etype="pinpart" layerid="11" id="gge128_11" c_origin="4039.685,3388.63" net="" c_rotation="0" c_width="27.559" c_height="9.8425"><polyline points="4030.8268 3388.63 4048.5433 3388.63" stroke-width="9.8425" c_etype="pad_hole"/></g><g c_partid="part_pad" c_etype="pinpart" layerid="11" id="gge146_11" c_origin="4039.685,3349.26" net="" c_rotation="0" c_width="27.559" c_height="9.8425"><polyline points="4030.8268 3349.26 4048.5433 3349.26" stroke-width="9.8425" c_etype="pad_hole"/></g><g c_partid="part_pad" c_etype="pinpart" layerid="11" id="gge164_11" c_origin="4266.063,3349.26" net="" c_rotation="0" c_width="27.559" c_height="9.8425"><polyline points="4257.2048 3349.26 4274.9213 3349.26" stroke-width="9.8425" c_etype="pad_hole"/></g><g c_partid="part_pad" c_etype="pinpart" layerid="11" id="gge182_11" c_origin="4266.063,3388.63" net="" c_rotation="0" c_width="27.559" c_height="9.8425"><polyline points="4257.2048 3388.63 4274.9213 3388.63" stroke-width="9.8425" c_etype="pad_hole"/></g></g><g id="bottomSignalSolderReal" mask="url(#bottomSignalSolderMask)" fill="#005CB6" stroke="#005CB6"><path d="M 4031.8222 3426.97969 L 4030.9488 3426.94414 4030.10762 3426.84334 4029.27694 3426.67685 4028.46188 3426.4457 4027.66748 3426.15131 4026.89862 3425.79551 4026.16004 3425.38047 4025.45631 3424.90877 4024.79175 3424.3833 4024.17047 3423.80732 4023.5963 3423.18437 4023.07277 3422.51828 4022.60312 3421.81318 4022.19024 3421.0734 4021.83667 3420.30351 4021.54459 3419.50825 4021.31582 3418.69252 4021.15175 3417.86136 4021.05339 3417.01989 4021.02 3416.1621 4021.02 3321.7279 4021.05586 3320.8388 4021.15666 3319.99762 4021.32315 3319.16694 4021.5543 3318.35188 4021.84869 3317.55748 4022.20449 3316.78862 4022.61953 3316.05004 4023.09123 3315.34631 4023.6167 3314.68175 4024.19268 3314.06047 4024.81563 3313.4863 4025.48172 3312.96277 4026.18682 3312.49312 4026.9266 3312.08024 4027.69649 3311.72667 4028.49175 3311.43459 4029.30748 3311.20582 4030.13864 3311.04175 4030.98011 3310.94339 4031.8379 3310.91 4283.7521 3310.91 4284.6412 3310.94586 4285.48238 3311.04666 4286.31306 3311.21315 4287.12812 3311.4443 4287.92252 3311.73869 4288.69138 3312.09449 4289.42996 3312.50953 4290.13369 3312.98123 4290.79825 3313.5067 4291.41953 3314.08268 4291.9937 3314.70563 4292.51723 3315.37172 4292.98688 3316.07682 4293.39976 3316.8166 4293.75333 3317.58649 4294.04541 3318.38175 4294.27418 3319.19748 4294.43825 3320.02864 4294.53661 3320.87011 4294.57 3321.7279 4294.57 3416.1621 4294.53414 3417.0512 4294.43334 3417.89238 4294.26685 3418.72306 4294.0357 3419.53812 4293.74131 3420.33252 4293.38551 3421.10138 4292.97047 3421.83996 4292.49877 3422.54369 4291.9733 3423.20825 4291.39732 3423.82953 4290.77437 3424.4037 4290.10828 3424.92723 4289.40318 3425.39688 4288.6634 3425.80976 4287.89351 3426.16333 4287.09825 3426.45541 4286.28252 3426.68418 4285.45136 3426.84825 4284.60989 3426.94661 4283.7521 3426.98 4031.8379 3426.98 4031.8222 3426.97969 Z M 4273.20225 3391.34063 L 4273.20225 3394.57125 4274.90953 3394.57125 4275.58589 3394.53327 4276.24266 3394.42168 4276.88281 3394.23725 4277.49829 3393.98231 4278.08135 3393.66007 4278.62467 3393.27456 4279.1214 3392.83065 4279.56531 3392.33392 4279.95082 3391.7906 4280.19951 3391.34063 4273.20225 3391.34063 Z M 4258.92275 3346.54938 L 4258.92275 3343.31875 4257.21547 3343.31875 4256.53911 3343.35673 4255.88234 3343.46832 4255.24219 3343.65275 4254.62671 3343.90769 4254.04365 3344.22993 4253.50033 3344.61544 4253.0036 3345.05935 4252.55969 3345.55608 4252.17418 3346.0994 4251.92549 3346.54938 4258.92275 3346.54938 Z M 4273.20225 3382.68875 L 4273.20225 3385.91937 4280.19951 3385.91937 4279.95082 3385.4694 4279.56531 3384.92608 4279.1214 3384.42935 4278.62467 3383.98544 4278.08135 3383.59993 4277.49829 3383.27769 4276.88281 3383.02275 4276.24266 3382.83832 4275.58589 3382.72673 4274.90953 3382.68875 4273.20225 3382.68875 Z M 4256.53911 3355.16327 L 4257.21547 3355.20125 4258.92275 3355.20125 4258.92275 3351.97063 4251.92549 3351.97063 4252.17418 3352.4206 4252.55969 3352.96392 4253.0036 3353.46065 4253.50033 3353.90456 4254.04365 3354.29007 4254.62671 3354.61231 4255.24219 3354.86725 4255.88234 3355.05168 4256.53911 3355.16327 Z M 4258.92275 3394.57125 L 4258.92275 3391.34063 4251.92549 3391.34063 4252.17418 3391.7906 4252.55969 3392.33392 4253.0036 3392.83065 4253.50033 3393.27456 4254.04365 3393.66007 4254.62671 3393.98231 4255.24219 3394.23725 4255.88234 3394.42168 4256.53911 3394.53327 4257.21547 3394.57125 4258.92275 3394.57125 Z M 4273.20225 3351.97063 L 4273.20225 3355.20125 4274.90953 3355.20125 4275.58589 3355.16327 4276.24266 3355.05168 4276.88281 3354.86725 4277.49829 3354.61231 4278.08135 3354.29007 4278.62467 3353.90456 4279.1214 3353.46065 4279.56531 3352.96392 4279.95082 3352.4206 4280.19951 3351.97063 4273.20225 3351.97063 Z M 4252.17418 3385.4694 L 4251.92549 3385.91937 4258.92275 3385.91937 4258.92275 3382.68875 4257.21547 3382.68875 4256.53911 3382.72673 4255.88234 3382.83832 4255.24219 3383.02275 4254.62671 3383.27769 4254.04365 3383.59993 4253.50033 3383.98544 4253.0036 3384.42935 4252.55969 3384.92608 4252.17418 3385.4694 Z M 4273.20225 3343.31875 L 4273.20225 3346.54938 4280.19951 3346.54938 4279.95082 3346.0994 4279.56531 3345.55608 4279.1214 3345.05935 4278.62467 3344.61544 4278.08135 3344.22993 4277.49829 3343.90769 4276.88281 3343.65275 4276.24266 3343.46832 4275.58589 3343.35673 4274.90953 3343.31875 4273.20225 3343.31875 Z M 4030.16161 3355.16327 L 4030.83797 3355.20125 4032.54525 3355.20125 4032.54525 3351.97063 4025.54799 3351.97063 4025.79668 3352.4206 4026.18219 3352.96392 4026.6261 3353.46065 4027.12283 3353.90456 4027.66615 3354.29007 4028.24921 3354.61231 4028.86469 3354.86725 4029.50484 3355.05168 4030.16161 3355.16327 Z M 4032.54525 3394.57125 L 4032.54525 3391.34063 4025.54799 3391.34063 4025.79668 3391.7906 4026.18219 3392.33392 4026.6261 3392.83065 4027.12283 3393.27456 4027.66615 3393.66007 4028.24921 3393.98231 4028.86469 3394.23725 4029.50484 3394.42168 4030.16161 3394.53327 4030.83797 3394.57125 4032.54525 3394.57125 Z M 4046.82475 3391.34063 L 4046.82475 3394.57125 4048.53203 3394.57125 4049.20839 3394.53327 4049.86516 3394.42168 4050.50531 3394.23725 4051.12079 3393.98231 4051.70385 3393.66007 4052.24717 3393.27456 4052.7439 3392.83065 4053.18781 3392.33392 4053.57332 3391.7906 4053.82201 3391.34063 4046.82475 3391.34063 Z M 4046.82475 3382.68875 L 4046.82475 3385.91937 4053.82201 3385.91937 4053.57332 3385.4694 4053.18781 3384.92608 4052.7439 3384.42935 4052.24717 3383.98544 4051.70385 3383.59993 4051.12079 3383.27769 4050.50531 3383.02275 4049.86516 3382.83832 4049.20839 3382.72673 4048.53203 3382.68875 4046.82475 3382.68875 Z M 4048.53203 3355.20125 L 4049.20839 3355.16327 4049.86516 3355.05168 4050.50531 3354.86725 4051.12079 3354.61231 4051.70385 3354.29007 4052.24717 3353.90456 4052.7439 3353.46065 4053.18781 3352.96392 4053.57332 3352.4206 4053.82201 3351.97063 4046.82475 3351.97063 4046.82475 3355.20125 4048.53203 3355.20125 Z M 4025.79668 3346.0994 L 4025.54799 3346.54938 4032.54525 3346.54938 4032.54525 3343.31875 4030.83797 3343.31875 4030.16161 3343.35673 4029.50484 3343.46832 4028.86469 3343.65275 4028.24921 3343.90769 4027.66615 3344.22993 4027.12283 3344.61544 4026.6261 3345.05935 4026.18219 3345.55608 4025.79668 3346.0994 Z M 4046.82475 3343.31875 L 4046.82475 3346.54938 4053.82201 3346.54938 4053.57332 3346.0994 4053.18781 3345.55608 4052.7439 3345.05935 4052.24717 3344.61544 4051.70385 3344.22993 4051.12079 3343.90769 4050.50531 3343.65275 4049.86516 3343.46832 4049.20839 3343.35673 4048.53203 3343.31875 4046.82475 3343.31875 Z M 4032.54525 3385.91937 L 4032.54525 3382.68875 4030.83797 3382.68875 4030.16161 3382.72673 4029.50484 3382.83832 4028.86469 3383.02275 4028.24921 3383.27769 4027.66615 3383.59993 4027.12283 3383.98544 4026.6261 3384.42935 4026.18219 3384.92608 4025.79668 3385.4694 4025.54799 3385.91937 4032.54525 3385.91937 Z " stroke-width="0" id="gge341_2"/><g c_partid="part_pad" c_etype="pinpart" layerid="11" id="gge128_11" c_origin="4039.685,3388.63" net="" c_rotation="0" c_width="27.559" c_height="9.8425"><polyline points="4030.8268 3388.63 4048.5433 3388.63" stroke-width="9.8425" c_etype="pad_hole"/></g><g c_partid="part_pad" c_etype="pinpart" layerid="11" id="gge146_11" c_origin="4039.685,3349.26" net="" c_rotation="0" c_width="27.559" c_height="9.8425"><polyline points="4030.8268 3349.26 4048.5433 3349.26" stroke-width="9.8425" c_etype="pad_hole"/></g><g c_partid="part_pad" c_etype="pinpart" layerid="11" id="gge164_11" c_origin="4266.063,3349.26" net="" c_rotation="0" c_width="27.559" c_height="9.8425"><polyline points="4257.2048 3349.26 4274.9213 3349.26" stroke-width="9.8425" c_etype="pad_hole"/></g><g c_partid="part_pad" c_etype="pinpart" layerid="11" id="gge182_11" c_origin="4266.063,3388.63" net="" c_rotation="0" c_width="27.559" c_height="9.8425"><polyline points="4257.2048 3388.63 4274.9213 3388.63" stroke-width="9.8425" c_etype="pad_hole"/></g></g><g id="bottomSilkLayer" fill="#FFFFFF" stroke="#FFFFFF"><g c_partid="part_pcbtext" c_etype="pinpart" c_origin="4232.598,3418.158" c_rotation="0" c_mirror="1" id="gge296_4" locked="0" layerid="4" c_shapetype="group"><path c_fontsize="8" c_fontfamily="" c_text="Do not remove this label" d="M 4232.598 3410.0815 L 4232.598 3417.7215 M 4232.598 3410.0815 L 4230.048 3410.0815 L 4228.958 3410.4515 L 4228.238 3411.1715 L 4227.868 3411.9015 L 4227.508 3412.9915 L 4227.508 3414.8115 L 4227.868 3415.9015 L 4228.238 3416.6315 L 4228.958 3417.3615 L 4230.048 3417.7215 L 4232.598 3417.7215 M 4223.288 3412.6315 L 4224.018 3412.9915 L 4224.748 3413.7215 L 4225.108 3414.8115 L 4225.108 3415.5415 L 4224.748 3416.6315 L 4224.018 3417.3615 L 4223.288 3417.7215 L 4222.198 3417.7215 L 4221.468 3417.3615 L 4220.748 3416.6315 L 4220.378 3415.5415 L 4220.378 3414.8115 L 4220.748 3413.7215 L 4221.468 3412.9915 L 4222.198 3412.6315 L 4223.288 3412.6315 M 4212.378 3412.6315 L 4212.378 3417.7215 M 4212.378 3414.0815 L 4211.288 3412.9915 L 4210.558 3412.6315 L 4209.468 3412.6315 L 4208.748 3412.9915 L 4208.378 3414.0815 L 4208.378 3417.7215 M 4204.158 3412.6315 L 4204.888 3412.9915 L 4205.618 3413.7215 L 4205.978 3414.8115 L 4205.978 3415.5415 L 4205.618 3416.6315 L 4204.888 3417.3615 L 4204.158 3417.7215 L 4203.068 3417.7215 L 4202.348 3417.3615 L 4201.618 3416.6315 L 4201.248 3415.5415 L 4201.248 3414.8115 L 4201.618 3413.7215 L 4202.348 3412.9915 L 4203.068 3412.6315 L 4204.158 3412.6315 M 4197.758 3410.0815 L 4197.758 3416.2715 L 4197.398 3417.3615 L 4196.668 3417.7215 L 4195.948 3417.7215 M 4198.848 3412.6315 L 4196.308 3412.6315 M 4187.948 3412.6315 L 4187.948 3417.7215 M 4187.948 3414.8115 L 4187.578 3413.7215 L 4186.848 3412.9915 L 4186.128 3412.6315 L 4185.038 3412.6315 M 4182.638 3414.8115 L 4178.268 3414.8115 L 4178.268 3414.0815 L 4178.638 3413.3615 L 4178.998 3412.9915 L 4179.728 3412.6315 L 4180.818 3412.6315 L 4181.548 3412.9915 L 4182.268 3413.7215 L 4182.638 3414.8115 L 4182.638 3415.5415 L 4182.268 3416.6315 L 4181.548 3417.3615 L 4180.818 3417.7215 L 4179.728 3417.7215 L 4178.998 3417.3615 L 4178.268 3416.6315 M 4175.868 3412.6315 L 4175.868 3417.7215 M 4175.868 3414.0815 L 4174.778 3412.9915 L 4174.048 3412.6315 L 4172.958 3412.6315 L 4172.238 3412.9915 L 4171.868 3414.0815 L 4171.868 3417.7215 M 4171.868 3414.0815 L 4170.778 3412.9915 L 4170.048 3412.6315 L 4168.958 3412.6315 L 4168.238 3412.9915 L 4167.868 3414.0815 L 4167.868 3417.7215 M 4163.648 3412.6315 L 4164.378 3412.9915 L 4165.108 3413.7215 L 4165.468 3414.8115 L 4165.468 3415.5415 L 4165.108 3416.6315 L 4164.378 3417.3615 L 4163.648 3417.7215 L 4162.558 3417.7215 L 4161.838 3417.3615 L 4161.108 3416.6315 L 4160.748 3415.5415 L 4160.748 3414.8115 L 4161.108 3413.7215 L 4161.838 3412.9915 L 4162.558 3412.6315 L 4163.648 3412.6315 M 4158.348 3412.6315 L 4156.158 3417.7215 M 4153.978 3412.6315 L 4156.158 3417.7215 M 4151.578 3414.8115 L 4147.218 3414.8115 L 4147.218 3414.0815 L 4147.578 3413.3615 L 4147.948 3412.9915 L 4148.668 3412.6315 L 4149.758 3412.6315 L 4150.488 3412.9915 L 4151.218 3413.7215 L 4151.578 3414.8115 L 4151.578 3415.5415 L 4151.218 3416.6315 L 4150.488 3417.3615 L 4149.758 3417.7215 L 4148.668 3417.7215 L 4147.948 3417.3615 L 4147.218 3416.6315 M 4138.128 3410.0815 L 4138.128 3416.2715 L 4137.758 3417.3615 L 4137.038 3417.7215 L 4136.308 3417.7215 M 4139.218 3412.6315 L 4136.668 3412.6315 M 4133.908 3410.0815 L 4133.908 3417.7215 M 4133.908 3414.0815 L 4132.818 3412.9915 L 4132.088 3412.6315 L 4130.998 3412.6315 L 4130.268 3412.9915 L 4129.908 3414.0815 L 4129.908 3417.7215 M 4127.508 3410.0815 L 4127.148 3410.4515 L 4126.778 3410.0815 L 4127.148 3409.7215 L 4127.508 3410.0815 M 4127.148 3412.6315 L 4127.148 3417.7215 M 4120.378 3413.7215 L 4120.748 3412.9915 L 4121.838 3412.6315 L 4122.928 3412.6315 L 4124.018 3412.9915 L 4124.378 3413.7215 L 4124.018 3414.4515 L 4123.288 3414.8115 L 4121.468 3415.1715 L 4120.748 3415.5415 L 4120.378 3416.2715 L 4120.378 3416.6315 L 4120.748 3417.3615 L 4121.838 3417.7215 L 4122.928 3417.7215 L 4124.018 3417.3615 L 4124.378 3416.6315 M 4112.378 3410.0815 L 4112.378 3417.7215 M 4105.618 3412.6315 L 4105.618 3417.7215 M 4105.618 3413.7215 L 4106.348 3412.9915 L 4107.068 3412.6315 L 4108.158 3412.6315 L 4108.888 3412.9915 L 4109.618 3413.7215 L 4109.978 3414.8115 L 4109.978 3415.5415 L 4109.618 3416.6315 L 4108.888 3417.3615 L 4108.158 3417.7215 L 4107.068 3417.7215 L 4106.348 3417.3615 L 4105.618 3416.6315 M 4103.218 3410.0815 L 4103.218 3417.7215 M 4103.218 3413.7215 L 4102.488 3412.9915 L 4101.758 3412.6315 L 4100.668 3412.6315 L 4099.948 3412.9915 L 4099.218 3413.7215 L 4098.848 3414.8115 L 4098.848 3415.5415 L 4099.218 3416.6315 L 4099.948 3417.3615 L 4100.668 3417.7215 L 4101.758 3417.7215 L 4102.488 3417.3615 L 4103.218 3416.6315 M 4096.448 3414.8115 L 4092.088 3414.8115 L 4092.088 3414.0815 L 4092.448 3413.3615 L 4092.818 3412.9915 L 4093.548 3412.6315 L 4094.638 3412.6315 L 4095.358 3412.9915 L 4096.088 3413.7215 L 4096.448 3414.8115 L 4096.448 3415.5415 L 4096.088 3416.6315 L 4095.358 3417.3615 L 4094.638 3417.7215 L 4093.548 3417.7215 L 4092.818 3417.3615 L 4092.088 3416.6315 M 4089.688 3410.0815 L 4089.688 3417.7215" fill="none" stroke-width="0.8"/></g></g></g></g></svg>