G04 Layer: TopLayer*
G04 EasyEDA v6.5.20, 2023-08-22 18:50:07*
G04 a67cddfb3fce44daa9051d46cbbcc19f,10*
G04 Gerber Generator version 0.2*
G04 Scale: 100 percent, Rotated: No, Reflected: No *
G04 Dimensions in millimeters *
G04 leading zeros omitted , absolute positions ,4 integer and 5 decimal *
%FSLAX45Y45*%
%MOMM*%

%ADD10O,6.999986000000001X2.4999949999999997*%

%LPD*%
G36*
X300278Y25908D02*
G01*
X278079Y26822D01*
X256743Y29362D01*
X235610Y33629D01*
X214934Y39471D01*
X194767Y46939D01*
X175209Y55981D01*
X156464Y66548D01*
X138582Y78536D01*
X121716Y91846D01*
X105918Y106476D01*
X91338Y122326D01*
X78028Y139242D01*
X66141Y157124D01*
X55626Y175920D01*
X46634Y195478D01*
X39217Y215696D01*
X33426Y236423D01*
X29260Y257505D01*
X26771Y278892D01*
X25908Y300685D01*
X25908Y2699308D01*
X26822Y2721914D01*
X29362Y2743250D01*
X33629Y2764383D01*
X39471Y2785059D01*
X46939Y2805226D01*
X55981Y2824784D01*
X66548Y2843530D01*
X78536Y2861411D01*
X91846Y2878277D01*
X106476Y2894076D01*
X122326Y2908655D01*
X139242Y2921965D01*
X157124Y2933852D01*
X175920Y2944368D01*
X195478Y2953359D01*
X215696Y2960776D01*
X236423Y2966567D01*
X257505Y2970733D01*
X278892Y2973222D01*
X300685Y2974086D01*
X6699300Y2974086D01*
X6721906Y2973171D01*
X6743242Y2970631D01*
X6764375Y2966364D01*
X6785051Y2960522D01*
X6805218Y2953054D01*
X6824776Y2944012D01*
X6843522Y2933446D01*
X6861403Y2921457D01*
X6878269Y2908147D01*
X6894068Y2893517D01*
X6908647Y2877667D01*
X6921957Y2860751D01*
X6933844Y2842869D01*
X6944359Y2824073D01*
X6953351Y2804515D01*
X6960768Y2784297D01*
X6966559Y2763570D01*
X6970725Y2742488D01*
X6973214Y2721102D01*
X6974078Y2699308D01*
X6974078Y300685D01*
X6973163Y278079D01*
X6970623Y256743D01*
X6966356Y235610D01*
X6960514Y214934D01*
X6953046Y194767D01*
X6944004Y175209D01*
X6933438Y156464D01*
X6921449Y138582D01*
X6908139Y121716D01*
X6893509Y105918D01*
X6877659Y91338D01*
X6860743Y78028D01*
X6842861Y66141D01*
X6824065Y55626D01*
X6804507Y46634D01*
X6784289Y39217D01*
X6763562Y33426D01*
X6742480Y29260D01*
X6721094Y26771D01*
X6699300Y25908D01*
G37*

%LPC*%
G36*
X5890920Y2068830D02*
G01*
X6068618Y2068830D01*
X6068618Y2150922D01*
X6025286Y2150922D01*
X6008116Y2149957D01*
X5991402Y2147112D01*
X5975146Y2142439D01*
X5959500Y2135936D01*
X5944717Y2127758D01*
X5930900Y2117953D01*
X5918301Y2106676D01*
X5907024Y2094077D01*
X5897219Y2080260D01*
G37*
G36*
X275285Y849071D02*
G01*
X318668Y849071D01*
X318668Y931164D01*
X140919Y931164D01*
X147218Y919734D01*
X157022Y905916D01*
X168300Y893318D01*
X180898Y882040D01*
X194716Y872236D01*
X209550Y864057D01*
X225145Y857554D01*
X241401Y852881D01*
X258114Y850036D01*
G37*
G36*
X6025286Y849071D02*
G01*
X6068618Y849071D01*
X6068618Y931164D01*
X5890920Y931164D01*
X5897219Y919734D01*
X5907024Y905916D01*
X5918301Y893318D01*
X5930900Y882040D01*
X5944717Y872236D01*
X5959500Y864057D01*
X5975146Y857554D01*
X5991402Y852881D01*
X6008116Y850036D01*
G37*
G36*
X6431330Y849071D02*
G01*
X6474714Y849071D01*
X6491884Y850036D01*
X6508546Y852881D01*
X6524802Y857554D01*
X6540449Y864057D01*
X6555282Y872236D01*
X6569049Y882040D01*
X6581698Y893318D01*
X6592976Y905916D01*
X6602730Y919734D01*
X6609080Y931164D01*
X6431330Y931164D01*
G37*
G36*
X140919Y1068832D02*
G01*
X318668Y1068832D01*
X318668Y1150924D01*
X275285Y1150924D01*
X258114Y1149959D01*
X241401Y1147114D01*
X225145Y1142441D01*
X209550Y1135938D01*
X194716Y1127760D01*
X180898Y1117955D01*
X168300Y1106678D01*
X157022Y1094079D01*
X147218Y1080262D01*
G37*
G36*
X681329Y1068832D02*
G01*
X859078Y1068832D01*
X852779Y1080262D01*
X842975Y1094079D01*
X831697Y1106678D01*
X819099Y1117955D01*
X805281Y1127760D01*
X790448Y1135938D01*
X774852Y1142441D01*
X758596Y1147114D01*
X741883Y1149959D01*
X724712Y1150924D01*
X681329Y1150924D01*
G37*
G36*
X5890920Y1068832D02*
G01*
X6068618Y1068832D01*
X6068618Y1150924D01*
X6025286Y1150924D01*
X6008116Y1149959D01*
X5991402Y1147114D01*
X5975146Y1142441D01*
X5959500Y1135938D01*
X5944717Y1127760D01*
X5930900Y1117955D01*
X5918301Y1106678D01*
X5907024Y1094079D01*
X5897219Y1080262D01*
G37*
G36*
X681329Y849071D02*
G01*
X724712Y849071D01*
X741883Y850036D01*
X758596Y852881D01*
X774852Y857554D01*
X790448Y864057D01*
X805281Y872236D01*
X819099Y882040D01*
X831697Y893318D01*
X842975Y905916D01*
X852779Y919734D01*
X859078Y931164D01*
X681329Y931164D01*
G37*
G36*
X681329Y1849069D02*
G01*
X724712Y1849069D01*
X741883Y1850034D01*
X758596Y1852879D01*
X774852Y1857552D01*
X790448Y1864055D01*
X805281Y1872234D01*
X819099Y1882038D01*
X831697Y1893316D01*
X842975Y1905914D01*
X852779Y1919732D01*
X859078Y1931162D01*
X681329Y1931162D01*
G37*
G36*
X275285Y1849069D02*
G01*
X318668Y1849069D01*
X318668Y1931162D01*
X140919Y1931162D01*
X147218Y1919732D01*
X157022Y1905914D01*
X168300Y1893316D01*
X180898Y1882038D01*
X194716Y1872234D01*
X209550Y1864055D01*
X225145Y1857552D01*
X241401Y1852879D01*
X258114Y1850034D01*
G37*
G36*
X6431330Y1849069D02*
G01*
X6474714Y1849069D01*
X6491884Y1850034D01*
X6508546Y1852879D01*
X6524802Y1857552D01*
X6540449Y1864055D01*
X6555282Y1872234D01*
X6569049Y1882038D01*
X6581698Y1893316D01*
X6592976Y1905914D01*
X6602730Y1919732D01*
X6609080Y1931162D01*
X6431330Y1931162D01*
G37*
G36*
X6025286Y1849069D02*
G01*
X6068618Y1849069D01*
X6068618Y1931162D01*
X5890920Y1931162D01*
X5897219Y1919732D01*
X5907024Y1905914D01*
X5918301Y1893316D01*
X5930900Y1882038D01*
X5944717Y1872234D01*
X5959500Y1864055D01*
X5975146Y1857552D01*
X5991402Y1852879D01*
X6008116Y1850034D01*
G37*
G36*
X681329Y2068830D02*
G01*
X859078Y2068830D01*
X852779Y2080260D01*
X842975Y2094077D01*
X831697Y2106676D01*
X819099Y2117953D01*
X805281Y2127758D01*
X790448Y2135936D01*
X774852Y2142439D01*
X758596Y2147112D01*
X741883Y2149957D01*
X724712Y2150922D01*
X681329Y2150922D01*
G37*
G36*
X140919Y2068830D02*
G01*
X318668Y2068830D01*
X318668Y2150922D01*
X275285Y2150922D01*
X258114Y2149957D01*
X241401Y2147112D01*
X225145Y2142439D01*
X209550Y2135936D01*
X194716Y2127758D01*
X180898Y2117953D01*
X168300Y2106676D01*
X157022Y2094077D01*
X147218Y2080260D01*
G37*
G36*
X6431330Y2068830D02*
G01*
X6609080Y2068830D01*
X6602730Y2080260D01*
X6592976Y2094077D01*
X6581698Y2106676D01*
X6569049Y2117953D01*
X6555282Y2127758D01*
X6540449Y2135936D01*
X6524802Y2142439D01*
X6508546Y2147112D01*
X6491884Y2149957D01*
X6474714Y2150922D01*
X6431330Y2150922D01*
G37*
G36*
X6431330Y1068832D02*
G01*
X6609080Y1068832D01*
X6602730Y1080262D01*
X6592976Y1094079D01*
X6581698Y1106678D01*
X6569049Y1117955D01*
X6555282Y1127760D01*
X6540449Y1135938D01*
X6524802Y1142441D01*
X6508546Y1147114D01*
X6491884Y1149959D01*
X6474714Y1150924D01*
X6431330Y1150924D01*
G37*

%LPD*%
D10*
G01*
X499998Y999997D03*
G01*
X499998Y1999995D03*
G01*
X6249987Y1999995D03*
G01*
X6249987Y999997D03*
M02*
